<svg width="20" height="20" viewBox="0 0 20 20" fill="none" xmlns="http://www.w3.org/2000/svg">
<g clip-path="url(#clip0_672_661)">
<path d="M16.8329 9.13617V10.4255C18.095 11.0562 18.8283 11.8368 18.8283 12.6111C18.8283 14.3859 15.2576 15.7801 11.7249 16.074C11.4024 16.1005 11.1626 16.3836 11.1896 16.7058C11.2149 17.0156 11.482 17.2658 11.8214 17.2415C14.8965 16.9884 19.9998 15.6614 19.9998 12.6111C19.9998 10.9452 18.3698 9.79914 16.8329 9.13617Z" fill="#0092B4"/>
<path d="M6.47739 14.0845C6.15204 13.7535 5.58661 13.9153 5.48731 14.3701L5.22844 15.5555C1.35063 14.5118 -0.511169 12.2669 3.17383 10.4255V9.13617C-1.66156 11.2221 -0.902771 15.14 4.97813 16.7016L4.74536 17.7673C4.64555 18.2243 5.0984 18.6108 5.53516 18.4361L8.46384 17.2646C8.85126 17.1097 8.95743 16.6089 8.66415 16.3103L6.47739 14.0845Z" fill="#0092B4"/>
<path d="M10.2604 1.59717C10.0798 1.49479 9.85851 1.49573 9.67875 1.59952L4.93066 4.3408C5.7348 4.80506 9.56558 7.01678 10.0026 7.26908L15.0762 4.32612L10.2604 1.59717Z" fill="#0092B4"/>
<path d="M4.34525 10.8379C4.34525 11.0472 4.45689 11.2405 4.63811 11.3452L9.41783 14.1047V8.28396L4.34521 5.35529V10.8379H4.34525Z" fill="#0092B4"/>
<path d="M15.6619 10.8379V5.34082L10.5894 8.2832V14.1048L15.3691 11.3452C15.5503 11.2405 15.6619 11.0472 15.6619 10.8379Z" fill="#0092B4"/>
</g>
<defs>
<clipPath id="clip0_672_661">
<rect width="20" height="20" fill="white"/>
</clipPath>
</defs>
</svg>
