<svg width="25" height="25" viewBox="0 0 25 25" fill="none" xmlns="http://www.w3.org/2000/svg">
<g clip-path="url(#clip0_708_3019)">
<path d="M12.5 1.69596L15.7558 3.57571L16.4902 2.30377L12.5 0L8.50977 2.30377L9.24414 3.57571L12.5 1.69596Z" fill="#0092B4"/>
<path d="M3.14342 7.09795L6.39928 5.21821L5.66491 3.94623L1.67468 6.25V10.8575H3.14342V7.09795Z" fill="#0092B4"/>
<path d="M3.14342 14.1425H1.67468V18.75L5.66491 21.0537L6.39928 19.7818L3.14342 17.902V14.1425Z" fill="#0092B4"/>
<path d="M12.5 23.3041L9.24414 21.4243L8.50977 22.6962L12.5 25L16.4902 22.6962L15.7558 21.4243L12.5 23.3041Z" fill="#0092B4"/>
<path d="M21.8566 17.902L18.6008 19.7818L19.3352 21.0537L23.3254 18.75V14.1425H21.8566V17.902Z" fill="#0092B4"/>
<path d="M19.3352 3.94623L18.6008 5.21821L21.8566 7.09795V10.8575H23.3254V6.25L19.3352 3.94623Z" fill="#0092B4"/>
<path d="M20.3862 17.0531V8.79486L13.2344 12.9239V21.1822L20.3862 17.0531Z" fill="#0092B4"/>
<path d="M5.34814 7.52292L12.5 11.652L19.6518 7.52292L12.5 3.3938L5.34814 7.52292Z" fill="#0092B4"/>
<path d="M4.61389 17.0531L11.7657 21.1822V12.9239L4.61389 8.79486V17.0531Z" fill="#0092B4"/>
</g>
<defs>
<clipPath id="clip0_708_3019">
<rect width="25" height="25" fill="white"/>
</clipPath>
</defs>
</svg>
