<svg width="40" height="37" viewBox="0 0 40 37" fill="none" xmlns="http://www.w3.org/2000/svg">
<path d="M27.7833 12.1166C27.8 11.9166 27.8167 11.7166 27.8167 11.4999C27.8167 11.2833 27.8 11.0833 27.7833 10.8833L29.1667 9.86662C30 9.24995 30.25 8.09995 29.7333 7.19995L28.5 4.99996C27.9833 4.06662 26.85 3.69996 25.9 4.14996L24.3667 4.86662C24.05 4.64996 23.75 4.46662 23.4167 4.29996L23.25 2.51662C23.15 1.46663 22.2833 0.666626 21.2333 0.666626H18.7667C17.7167 0.666626 16.85 1.46663 16.75 2.51662L16.5833 4.29996C16.25 4.46662 15.95 4.64996 15.6333 4.86662L14.1 4.14996C13.15 3.69996 12.0167 4.08329 11.5 4.99996L10.2667 7.19995C9.75 8.09995 10 9.24995 10.8333 9.86662L12.2167 10.8833C12.2 11.0833 12.1833 11.2833 12.1833 11.4999C12.1833 11.7166 12.2 11.9166 12.2167 12.1166L10.8333 13.1333C10 13.7499 9.75 14.8999 10.2667 15.7999L11.5 17.9999C12.0167 18.9166 13.15 19.2999 14.1 18.8499L15.6333 18.1333C15.95 18.3499 16.25 18.5333 16.5833 18.6999L16.75 20.4833C16.85 21.5333 17.7167 22.3333 18.7667 22.3333H21.2333C22.2833 22.3333 23.15 21.5333 23.25 20.4833L23.4167 18.6999C23.75 18.5333 24.05 18.3499 24.3667 18.1333L25.9 18.8499C26.85 19.2999 27.9833 18.9333 28.5 17.9999L29.7333 15.7999C30.25 14.8999 30 13.7499 29.1667 13.1333L27.7833 12.1166ZM24.1667 11.4999C24.1667 13.7999 22.3 15.6666 20 15.6666C17.7 15.6666 15.8333 13.7999 15.8333 11.4999C15.8333 9.19995 17.7 7.33329 20 7.33329C22.3 7.33329 24.1667 9.19995 24.1667 11.4999Z" fill="white"/>
<path d="M35 27H5C2.24333 27 0 29.2433 0 32C0 34.7567 2.24333 37 5 37H35C37.7567 37 40 34.7567 40 32C40 29.2433 37.7567 27 35 27ZM6.66667 33.6667C5.74833 33.6667 5 32.9183 5 32C5 31.0817 5.74833 30.3333 6.66667 30.3333C7.585 30.3333 8.33333 31.0817 8.33333 32C8.33333 32.9183 7.585 33.6667 6.66667 33.6667ZM15 33.6667C14.0817 33.6667 13.3333 32.9183 13.3333 32C13.3333 31.0817 14.0817 30.3333 15 30.3333C15.9183 30.3333 16.6667 31.0817 16.6667 32C16.6667 32.9183 15.9183 33.6667 15 33.6667ZM25 33.6667C24.0817 33.6667 23.3333 32.9183 23.3333 32C23.3333 31.0817 24.0817 30.3333 25 30.3333C25.9183 30.3333 26.6667 31.0817 26.6667 32C26.6667 32.9183 25.9183 33.6667 25 33.6667ZM33.3333 33.6667C32.415 33.6667 31.6667 32.9183 31.6667 32C31.6667 31.0817 32.415 30.3333 33.3333 30.3333C34.2517 30.3333 35 31.0817 35 32C35 32.9183 34.2517 33.6667 33.3333 33.6667Z" fill="white"/>
</svg>
