<svg width="30" height="28" viewBox="0 0 30 28" fill="none" xmlns="http://www.w3.org/2000/svg">
<path d="M20.8557 2.22601C20.6978 1.14209 19.7528 0.324646 18.6574 0.324646H11.342C10.2466 0.324646 9.30156 1.14209 9.14371 2.22607L8.75781 4.87585H10.5914L10.9392 2.48752C10.9681 2.28888 11.1413 2.13912 11.342 2.13912H18.6574C18.8581 2.13912 19.0313 2.28894 19.0602 2.48752L19.4079 4.8758H21.2416L20.8557 2.22601Z" fill="white"/>
<path d="M26.7451 18.0903H18.89V19.1493C18.89 19.4844 18.7054 19.7922 18.4097 19.9498L15.427 21.5405C15.2936 21.6117 15.1468 21.6473 15 21.6473C14.8533 21.6473 14.7064 21.6117 14.573 21.5405L11.5903 19.9498C11.2946 19.7922 11.11 19.4844 11.11 19.1493V18.0903H3.25494C2.01674 18.0903 0.881309 17.6434 0 16.9033V26.5619C0 27.1759 0.499512 27.6754 1.11352 27.6754H28.8865C29.5004 27.6754 30 27.1759 30 26.5619V16.9033C29.1186 17.6434 27.9832 18.0903 26.7451 18.0903Z" fill="white"/>
<path d="M28.8865 6.69025H1.11352C0.499512 6.69025 0 7.18982 0 7.80376V13.0208C0 14.8156 1.46016 16.2757 3.25494 16.2757H11.11V14.6865C11.11 14.1854 11.5162 13.7792 12.0172 13.7792H17.9828C18.4839 13.7792 18.8901 14.1854 18.8901 14.6865V16.2757H26.7451C28.5398 16.2757 30 14.8156 30 13.0208V7.80376C30 7.18982 29.5005 6.69025 28.8865 6.69025Z" fill="white"/>
<path d="M12.9238 15.5938V18.605L14.9993 19.7119L17.0748 18.605V15.5938H12.9238Z" fill="white"/>
</svg>
