<svg width="34" height="34" viewBox="0 0 34 34" fill="none" xmlns="http://www.w3.org/2000/svg">
<path d="M32.6977 10.6487L30.8518 11.3981C31.6189 13.2875 32.0078 15.1722 32.0078 17C32.0078 25.2754 25.2753 32.0078 17 32.0078C13.5768 32.0078 10.2615 30.7951 7.56075 28.5746C8.83296 26.5976 7.40848 23.9727 5.04688 23.9727C3.39934 23.9727 2.05859 25.3134 2.05859 26.9609C2.05859 28.9729 4.01977 30.4151 5.93871 29.8131C5.93911 29.813 5.93957 29.8128 5.93997 29.8127C9.05834 32.5173 12.96 34 17 34C26.3457 34 34 26.3471 34 17C34 14.9141 33.5619 12.7773 32.6977 10.6487Z" fill="white"/>
<path d="M1.99219 17C1.99219 8.72465 8.72465 1.99219 17 1.99219C20.4232 1.99219 23.7385 3.2049 26.4393 5.42539C25.1671 7.40244 26.5916 10.0273 28.9531 10.0273C30.6007 10.0273 31.9414 8.6866 31.9414 7.03906C31.9414 5.02722 29.9803 3.58494 28.0613 4.18691C28.0609 4.18705 28.0604 4.18718 28.06 4.18731C24.9417 1.48272 21.04 0 17 0C7.65425 0 0 7.65292 0 17C0 19.0859 0.438148 21.2227 1.30229 23.3513L3.14819 22.6019C2.38113 20.7125 1.99219 18.8278 1.99219 17Z" fill="white"/>
<path d="M7.24219 12.0195H12.5281C13.0659 9.55022 14.3939 6.11124 16.9302 6.04364C12.7107 6.0702 9.0491 8.49403 7.24219 12.0195Z" fill="white"/>
<path d="M14.0117 17C14.0117 18.0339 14.0761 19.0393 14.201 19.9883H19.799C19.9239 19.0393 19.9883 18.0339 19.9883 17C19.9883 15.9661 19.9239 14.9607 19.799 14.0117H14.201C14.0761 14.9607 14.0117 15.9661 14.0117 17Z" fill="white"/>
<path d="M26.7583 12.0195C24.9514 8.49403 21.2898 6.0702 17.0703 6.04364C19.6062 6.11124 20.9344 9.54929 21.4724 12.0195H26.7583Z" fill="white"/>
<path d="M14.5723 12.0195H19.4292C19.0581 10.5138 18.1032 8.03516 17.0007 8.03516C15.8171 8.03516 14.8772 10.7822 14.5723 12.0195Z" fill="white"/>
<path d="M27.9579 17C27.9579 15.9647 27.8138 14.962 27.5435 14.0117H21.8066C21.9215 14.9713 21.9813 15.9754 21.9813 17C21.9813 18.0246 21.9215 19.0287 21.8066 19.9883H27.5435C27.8138 19.038 27.9579 18.0353 27.9579 17Z" fill="white"/>
<path d="M26.7589 21.9805H21.473C20.9355 24.4484 19.6087 27.8876 17.0723 27.9564C21.2917 27.9298 24.952 25.5053 26.7589 21.9805Z" fill="white"/>
<path d="M16.9289 27.9564C14.3931 27.8877 13.066 24.4503 12.5281 21.9805H7.24219C9.0491 25.5053 12.7094 27.9298 16.9289 27.9564Z" fill="white"/>
<path d="M6.04297 17C6.04297 18.0353 6.18707 19.038 6.45734 19.9883H12.1942C12.0793 19.0287 12.0195 18.0246 12.0195 17C12.0195 15.9754 12.0793 14.9713 12.1942 14.0117H6.45734C6.18707 14.962 6.04297 15.9647 6.04297 17Z" fill="white"/>
<path d="M19.4292 21.9805H14.5723C14.9434 23.4862 15.8983 25.9648 17.0007 25.9648C18.1844 25.9648 19.1243 23.2177 19.4292 21.9805Z" fill="white"/>
</svg>
