<svg width="34" height="34" viewBox="0 0 34 34" fill="none" xmlns="http://www.w3.org/2000/svg">
<path d="M17 1.38321e-08C10.9584 1.38321e-08 6.04297 4.91539 6.04297 10.957C6.04297 14.4155 7.65398 17.5054 10.1648 19.5155C10.7989 16.4144 13.5415 13.9453 17 13.9453C14.2541 13.9453 12.0195 11.7107 12.0195 8.96485C12.0195 6.21895 14.2541 3.98438 17 3.98438C19.7459 3.98438 21.9805 6.21895 21.9805 8.96485C21.9805 11.7107 19.7459 13.9453 17 13.9453C20.2618 13.9453 23.1692 16.2476 23.8305 19.5188C26.344 17.5093 27.957 14.4181 27.957 10.957C27.957 4.91539 23.0416 1.38321e-08 17 1.38321e-08Z" fill="white"/>
<path d="M16.9999 15.9375C14.2703 15.9375 12.1227 18.0983 12.0254 20.718C13.5189 21.4824 15.2102 21.914 16.9999 21.914C18.7895 21.914 20.4796 21.483 21.973 20.7187C21.8641 18.0083 19.6351 15.9375 16.9999 15.9375Z" fill="white"/>
<path d="M20.4914 34L17.0007 32.1649L13.51 34L14.1801 30.0935L11.3418 27.3269L15.2634 26.7571L17.0007 23.2109L18.7379 26.7571L22.6595 27.3269L19.8213 30.0935L20.4914 34Z" fill="white"/>
<path d="M9.18472 34L5.67647 32.1557L2.16816 34L2.83827 30.0935L0 27.327L3.92235 26.7571L5.67647 23.2028L7.4306 26.7571L11.3529 27.327L8.51468 30.0936L9.18472 34Z" fill="white"/>
<path d="M31.8313 34L28.323 32.1557L24.8147 34L25.4848 30.0935L22.6465 27.3269L26.5688 26.757L28.323 23.2028L30.0771 26.757L33.9994 27.327L31.1612 30.0936L31.8313 34Z" fill="white"/>
<path d="M17 11.9531C18.6504 11.9531 19.9883 10.6152 19.9883 8.96483C19.9883 7.31445 18.6504 5.97655 17 5.97655C15.3496 5.97655 14.0117 7.31445 14.0117 8.96483C14.0117 10.6152 15.3496 11.9531 17 11.9531Z" fill="white"/>
</svg>
