<svg width="25" height="25" viewBox="0 0 25 25" fill="none" xmlns="http://www.w3.org/2000/svg">
<g clip-path="url(#clip0_703_2974)">
<path d="M20.1751 0.937775C19.3797 0.937775 5.70318 0.937775 4.82628 0.937775L0 7.51902L12.5519 24.0622L25.0001 7.51712L20.1751 0.937775ZM6.86188 8.24205L10.3982 18.807L2.38227 8.24205H6.86188ZM8.40245 8.24205H16.6033L12.531 20.5764L8.40245 8.24205ZM18.1418 8.24205H22.6265L14.6349 18.8638L18.1418 8.24205ZM19.4348 2.39863L22.6487 6.78119H18.1427L16.7047 2.39863H19.4348ZM15.1672 2.39863L16.6052 6.78119H8.39612L9.83414 2.39863H15.1672ZM5.56654 2.39863H8.29659L6.85857 6.78119H2.35266L5.56654 2.39863Z" fill="#0092B4"/>
</g>
<defs>
<clipPath id="clip0_703_2974">
<rect width="25" height="25" fill="white"/>
</clipPath>
</defs>
</svg>
