<svg width="25" height="25" viewBox="0 0 25 25" fill="none" xmlns="http://www.w3.org/2000/svg">
<g clip-path="url(#clip0_703_2971)">
<path d="M12.4999 25C12.3832 25 12.2657 24.9741 12.1581 24.9207C7.21568 22.5143 3.12476 19.9172 3.12476 12.4998V3.90594C3.12476 3.57711 3.32997 3.28412 3.63898 3.17198L12.2329 0.0469004C12.4053 -0.0156538 12.5945 -0.0156538 12.7669 0.0469004L21.3608 3.17194C21.6698 3.28407 21.875 3.57706 21.875 3.90589V12.4998C21.875 19.9172 17.7841 22.5143 12.8417 24.9206C12.7341 24.9741 12.6166 25 12.4999 25ZM4.6873 4.45296V12.4998C4.6873 18.328 7.31793 20.7763 12.4999 23.3475C17.6819 20.7763 20.3125 18.328 20.3125 12.4998V4.45296L12.4999 1.61248L4.6873 4.45296Z" fill="#0092B4"/>
<path d="M11.9477 15.6248L8.27026 11.9474L9.37501 10.8427L11.9477 13.4153L16.8641 8.49884L17.9689 9.60359L11.9477 15.6248Z" fill="#0092B4"/>
</g>
<defs>
<clipPath id="clip0_703_2971">
<rect width="25" height="25" fill="white"/>
</clipPath>
</defs>
</svg>
