<svg width="24" height="24" viewBox="0 0 24 24" fill="none" xmlns="http://www.w3.org/2000/svg">
<path d="M20.4844 17.6719V3.48084C20.4844 1.5615 18.9229 0 17.0036 0H2.4375V0.000609375C1.09134 0.0132656 0 1.11183 0 2.46094V6.32812H3.51562V7.88705C1.52292 8.22281 0 9.96019 0 12.0469C0 13.2936 0.543703 14.4154 1.40625 15.1884V21.0951L3.51562 19.6888V20.5192C3.51562 22.4385 5.07713 24 6.99642 24H21.5625V23.9994C22.9087 23.9867 24 22.8882 24 21.5391V17.6719H20.4844ZM1.40625 2.46094C1.40625 1.87941 1.87936 1.40625 2.46094 1.40625C3.04252 1.40625 3.51562 1.87941 3.51562 2.46094V4.92188H1.40625V2.46094ZM4.21875 9.23438C5.76956 9.23438 7.03125 10.4961 7.03125 12.0469C7.03125 13.5977 5.76956 14.8594 4.21875 14.8594C2.66794 14.8594 1.40625 13.5977 1.40625 12.0469C1.40625 10.4961 2.66794 9.23438 4.21875 9.23438ZM2.8125 16.0243C3.69633 16.3378 4.6943 16.3545 5.625 16.0243V18.4675L4.21875 17.53L2.8125 18.4675V16.0243ZM4.92188 20.5192V19.6888L7.03125 21.095V15.1884C7.8938 14.4155 8.4375 13.2936 8.4375 12.0469C8.4375 9.96019 6.91458 8.22281 4.92188 7.88705C4.92188 7.30031 4.92188 3.13125 4.92188 2.46094C4.92188 2.08369 4.83633 1.72613 4.68394 1.40625H17.0036C18.1475 1.40625 19.0781 2.33691 19.0781 3.48084V21.5391C19.0781 21.9163 19.1637 22.2739 19.3161 22.5938H6.99642C5.85253 22.5938 4.92188 21.6631 4.92188 20.5192ZM22.5938 21.5391C22.5938 22.1206 22.1206 22.5938 21.5391 22.5938C20.9575 22.5938 20.4844 22.1206 20.4844 21.5391V19.0781H22.5938V21.5391Z" fill="#0092B4"/>
<path d="M10.5469 4.21875H16.875V5.625H10.5469V4.21875Z" fill="#0092B4"/>
<path d="M10.5469 7.82812H16.875V9.23438H10.5469V7.82812Z" fill="#0092B4"/>
<path d="M10.5469 11.3438H16.875V12.75H10.5469V11.3438Z" fill="#0092B4"/>
<path d="M10.5469 14.8594H16.875V16.2656H10.5469V14.8594Z" fill="#0092B4"/>
<path d="M10.5469 18.375H16.875V19.7812H10.5469V18.375Z" fill="#0092B4"/>
</svg>
