<svg width="32" height="19" viewBox="0 0 32 19" fill="none" xmlns="http://www.w3.org/2000/svg">
<path fill-rule="evenodd" clip-rule="evenodd" d="M26.9495 6.44901L26.1755 7.23701L26.1445 11.376C26.1445 11.847 26.1635 12.307 26.1995 12.752C26.1995 12.757 26.1995 12.762 26.2005 12.767C26.2365 13.211 26.2905 13.639 26.3595 14.049C26.3605 14.052 26.3605 14.055 26.3605 14.059C26.7855 16.579 27.7895 18.351 28.9615 18.351C30.5175 18.351 31.7795 15.228 31.7795 11.376V1.53601L26.9495 6.44901Z" fill="#0092B4"/>
<mask id="mask0_724_3597" style="mask-type:alpha" maskUnits="userSpaceOnUse" x="0" y="0" width="30" height="19">
<path fill-rule="evenodd" clip-rule="evenodd" d="M0 0.375488H29.636V18.3534H0V0.375488Z" fill="white"/>
</mask>
<g mask="url(#mask0_724_3597)">
<path fill-rule="evenodd" clip-rule="evenodd" d="M16.9297 5.95437L20.2687 2.84937H23.7607L20.4197 5.95437H16.9297ZM13.2937 5.95434H10.0117L13.3497 2.85034H16.6317L13.2937 5.95434ZM6.37491 5.95438H3.62891L6.98491 2.84338L6.98891 2.85238L9.71191 2.85138L6.37491 5.95438ZM23.665 11.3574L23.697 7.21837L23.703 6.28537L29.636 0.375366L7.031 0.389366C6.336 0.389366 5.667 0.653366 5.16 1.12837L0.721 5.28037C0.261 5.70937 0.001 6.31137 0.004 6.94137L0.007 7.76237L0.01 8.35837L0 8.37037V15.6974C0 17.1644 1.189 18.3534 2.656 18.3534H25.215C25.024 18.0244 24.841 17.6554 24.671 17.2354C24.023 15.6304 23.665 13.5494 23.665 11.3574Z" fill="#0092B4"/>
</g>
</svg>
