<svg width="27" height="27" viewBox="0 0 27 27" fill="none" xmlns="http://www.w3.org/2000/svg">
<path fill-rule="evenodd" clip-rule="evenodd" d="M7.51194 19.2513C7.76194 20.1323 8.68994 20.7523 9.75494 20.7523H17.1849C18.2119 20.7523 19.1159 20.1753 19.4019 19.3363L21.7409 12.4543H5.58594L7.51194 19.2513Z" fill="#0092B4"/>
<mask id="mask0_724_3525" style="mask-type:alpha" maskUnits="userSpaceOnUse" x="0" y="0" width="27" height="11">
<path fill-rule="evenodd" clip-rule="evenodd" d="M0.5 0.600098H26.7408V10.0391H0.5V0.600098Z" fill="white"/>
</mask>
<g mask="url(#mask0_724_3525)">
<path fill-rule="evenodd" clip-rule="evenodd" d="M17.9157 5.65211C17.8407 5.67011 17.7647 5.67711 17.6887 5.67711C17.2237 5.67711 16.8017 5.35611 16.6937 4.88211L16.2597 2.96811C16.1357 2.41811 16.4797 1.87111 17.0297 1.74611C17.5807 1.62211 18.1267 1.96611 18.2517 2.51611L18.6867 4.43011C18.8117 4.98011 18.4667 5.52711 17.9157 5.65211ZM14.011 5.69311H13.563C13.114 5.58911 12.771 5.20711 12.767 4.72611L12.75 2.81211C12.745 2.24811 13.198 1.78611 13.762 1.78111C14.342 1.77011 14.787 2.23011 14.793 2.79411L14.81 4.70811C14.813 5.19611 14.468 5.58811 14.011 5.69311ZM11.2953 3.0131L10.8613 4.9271C10.7683 5.3401 10.4333 5.6231 10.0403 5.6931H9.62926C9.08526 5.5641 8.74526 5.0221 8.86926 4.4761L9.30326 2.5621C9.42826 2.0121 9.97526 1.6681 10.5243 1.7911C11.0753 1.9161 11.4203 2.4641 11.2953 3.0131ZM24.568 5.6931H21.146L20.009 2.0251C19.749 1.1891 18.786 0.600098 17.679 0.600098H9.965C8.897 0.600098 7.959 1.1481 7.663 1.9441L6.268 5.6931H2.673C1.473 5.6931 0.5 6.6661 0.5 7.8661C0.5 9.0661 1.473 10.0391 2.673 10.0391H24.568C25.769 10.0391 26.741 9.0661 26.741 7.8661C26.741 6.6661 25.769 5.6931 24.568 5.6931Z" fill="#0092B4"/>
</g>
<path fill-rule="evenodd" clip-rule="evenodd" d="M17.6621 22.9485H9.21209C8.54009 22.9485 7.99609 23.4925 7.99609 24.1645V25.0145C7.99609 25.6865 8.54009 26.2305 9.21209 26.2305H17.6621C18.3341 26.2305 18.8781 25.6865 18.8781 25.0145V24.1645C18.8781 23.4925 18.3341 22.9485 17.6621 22.9485Z" fill="#0092B4"/>
</svg>
