<svg width="15" height="16" viewBox="0 0 15 16" fill="none" xmlns="http://www.w3.org/2000/svg">
<path d="M12.9164 1.75025H11.6661V0.5H10.8328V1.75025H4.16646V0.5H3.33317V1.75025H2.0836C0.934769 1.75025 0 2.68497 0 3.83374V13.4165C0 14.5653 0.934769 15.5 2.0836 15.5H12.9164C14.0652 15.5 15 14.5653 15 13.4165V5.9165V5.08325V3.833C14.9993 2.68423 14.0645 1.75025 12.9164 1.75025ZM14.166 13.4158C14.166 14.1046 13.6053 14.6653 12.9164 14.6653H2.0836C1.39401 14.6653 0.833292 14.1046 0.833292 13.4158V5.9165H14.166V13.4158ZM14.166 5.08325H0.833292V3.833C0.833292 3.14344 1.39401 2.58276 2.0836 2.58276H3.33391V3.41601H4.16646V2.5835H10.8328V3.41675H11.6661V2.5835H12.9164C13.6053 2.5835 14.166 3.14344 14.166 3.833V5.08325Z" fill="#0092B4"/>
</svg>
