<svg width="19" height="14" viewBox="0 0 19 14" fill="none" xmlns="http://www.w3.org/2000/svg">
<path d="M3.98438 1.48071H12.7764C15.6724 1.48071 18.0204 3.90239 18.0204 6.888V10.1489C18.0204 10.5984 17.6674 10.9623 17.2324 10.9623H3.98438V6.25191" stroke="#3F4B50" stroke-linecap="round" stroke-linejoin="round"/>
<path d="M13.1738 1.38818V5.38106C13.1738 6.00067 13.6598 6.50171 14.2598 6.50171H17.8318" stroke="#3F4B50"/>
<path d="M1 6.13214H6.21704" stroke="#3F4B50" stroke-linecap="round" stroke-linejoin="round"/>
<path d="M3.05664 3.63849H8.27368" stroke="#3F4B50" stroke-linecap="round" stroke-linejoin="round"/>
<path fill-rule="evenodd" clip-rule="evenodd" d="M9.24829 11.014C9.24829 11.9656 8.49929 12.7378 7.57629 12.7378C6.6533 12.7378 5.9043 11.9656 5.9043 11.014C5.9043 10.0614 6.6533 9.29028 7.57629 9.29028C8.49929 9.29028 9.24829 10.0614 9.24829 11.014Z" fill="white"/>
<path fill-rule="evenodd" clip-rule="evenodd" d="M9.24829 11.014C9.24829 11.9656 8.49929 12.7378 7.57629 12.7378C6.6533 12.7378 5.9043 11.9656 5.9043 11.014C5.9043 10.0614 6.6533 9.29028 7.57629 9.29028C8.49929 9.29028 9.24829 10.0614 9.24829 11.014Z" stroke="#3F4B50"/>
<path fill-rule="evenodd" clip-rule="evenodd" d="M15.8401 11.014C15.8401 11.9656 15.0911 12.7378 14.1681 12.7378C13.2451 12.7378 12.4961 11.9656 12.4961 11.014C12.4961 10.0614 13.2451 9.29028 14.1681 9.29028C15.0911 9.29028 15.8401 10.0614 15.8401 11.014Z" fill="white"/>
<path fill-rule="evenodd" clip-rule="evenodd" d="M15.8401 11.014C15.8401 11.9656 15.0911 12.7378 14.1681 12.7378C13.2451 12.7378 12.4961 11.9656 12.4961 11.014C12.4961 10.0614 13.2451 9.29028 14.1681 9.29028C15.0911 9.29028 15.8401 10.0614 15.8401 11.014Z" stroke="#3F4B50"/>
</svg>
