<svg width="21" height="21" viewBox="0 0 21 21" fill="none" xmlns="http://www.w3.org/2000/svg">
<path fill-rule="evenodd" clip-rule="evenodd" d="M3.10651 4.01312H17.6619C18.9256 4.01312 19.8726 5.17061 19.6223 6.4093L18.4306 12.3057C18.2421 13.2386 17.4221 13.9095 16.4703 13.9095H6.74275C5.7909 13.9095 4.97093 13.2386 4.78238 12.3057L3.10651 4.01312Z" fill="#0092B4"/>
<path fill-rule="evenodd" clip-rule="evenodd" d="M0.609878 2.37697C0.280262 1.60444 0.675025 0.714469 1.46892 0.440297C2.18717 0.192248 2.97498 0.541691 3.27318 1.24061L7.63629 11.4665C7.96591 12.239 7.57114 13.129 6.77725 13.4032C6.05899 13.6512 5.27119 13.3018 4.97298 12.6029L0.609878 2.37697Z" fill="#0092B4"/>
<path fill-rule="evenodd" clip-rule="evenodd" d="M8.24617 20.5958C9.38473 20.5958 10.3077 19.686 10.3077 18.5637C10.3077 17.4414 9.38473 16.5316 8.24617 16.5316C7.10762 16.5316 6.18463 17.4414 6.18463 18.5637C6.18463 19.686 7.10762 20.5958 8.24617 20.5958Z" fill="#0092B4"/>
<path fill-rule="evenodd" clip-rule="evenodd" d="M15.8057 20.5958C16.9442 20.5958 17.8672 19.686 17.8672 18.5637C17.8672 17.4414 16.9442 16.5316 15.8057 16.5316C14.6671 16.5316 13.7441 17.4414 13.7441 18.5637C13.7441 19.686 14.6671 20.5958 15.8057 20.5958Z" fill="#0092B4"/>
</svg>
