<svg width="9" height="9" viewBox="0 0 9 9" fill="none" xmlns="http://www.w3.org/2000/svg">
<path fill-rule="evenodd" clip-rule="evenodd" d="M0.277397 8.22554C0.643336 8.59148 1.23664 8.59148 1.60258 8.22554L4.25147 5.57666L6.90036 8.22555C7.2663 8.59149 7.85961 8.59149 8.22554 8.22555C8.59148 7.85961 8.59148 7.26631 8.22554 6.90037L5.57665 4.25148L8.22849 1.59964C8.59443 1.2337 8.59443 0.640393 8.22849 0.274454C7.86255 -0.0914848 7.26924 -0.0914845 6.90331 0.274454L4.25147 2.92629L1.59964 0.274463C1.2337 -0.0914755 0.640393 -0.0914752 0.274454 0.274463C-0.0914848 0.640402 -0.0914845 1.23371 0.274454 1.59965L2.92628 4.25147L0.277397 6.90036C-0.0885418 7.2663 -0.0885415 7.8596 0.277397 8.22554Z" fill="#3F4B50"/>
</svg>
