<svg width="13" height="14" viewBox="0 0 13 14" fill="none" xmlns="http://www.w3.org/2000/svg">
<path fill-rule="evenodd" clip-rule="evenodd" d="M6.47209 12.9442C9.77039 12.9442 12.4442 10.2704 12.4442 6.97209C12.4442 3.6738 9.77039 1 6.47209 1C3.1738 1 0.5 3.6738 0.5 6.97209C0.5 10.2704 3.1738 12.9442 6.47209 12.9442Z" stroke="#3F4B50"/>
<path d="M4.40434 6.07393C4.1577 5.82729 3.7578 5.82729 3.51116 6.07393C3.26451 6.32058 3.26451 6.72047 3.51116 6.96712L5.48835 8.94432C5.735 9.19097 6.13489 9.19097 6.38154 8.94432L9.43281 5.89305C9.67945 5.64641 9.67945 5.24651 9.43281 4.99987C9.18616 4.75322 8.78627 4.75322 8.53962 4.99987L5.93495 7.60454L4.40434 6.07393Z" fill="#3F4B50"/>
</svg>
