<svg width="15" height="16" viewBox="0 0 15 16" fill="none" xmlns="http://www.w3.org/2000/svg">
<g clip-path="url(#clip0_669_627)">
<path d="M7.49995 4.90279L6.68968 3.78231C6.45998 3.46469 6.20624 3.20195 5.93532 2.99244L5.93527 2.9924C5.40883 2.58526 4.83013 2.38782 4.19025 2.38782C3.30767 2.38782 2.50988 2.7374 1.92513 3.37158L7.49995 4.90279ZM7.49995 4.90279L8.31029 3.78236M7.49995 4.90279L8.31029 3.78236M8.31029 3.78236C8.54009 3.46461 8.79373 3.20198 9.06456 2.99245L8.31029 3.78236ZM5.86048 12.2847L5.86053 12.2847L5.86339 12.2872C6.35623 12.7072 6.91651 13.1847 7.50001 13.6939C8.07898 13.1886 8.6354 12.7143 9.12551 12.2966L9.13978 12.2844L9.13988 12.2843C10.6735 10.9775 11.9019 9.92642 12.7424 8.91212L12.7424 8.91208C13.6474 7.82014 14 6.87711 14 5.89565C14 4.89022 13.6562 4.00227 13.0748 3.37167C12.4901 2.73742 11.6923 2.38782 10.8097 2.38782C10.1699 2.38782 9.59125 2.58521 9.06469 2.99235L5.86048 12.2847ZM5.86048 12.2847C4.32672 10.9776 3.09827 9.92645 2.2577 8.91223L5.86048 12.2847ZM5.21295 13.0467C5.7287 13.4863 6.31321 13.9845 6.92013 14.5151L1.18984 2.69382C0.42263 3.52615 0 4.66323 0 5.89576C0 7.16434 0.472755 8.32557 1.48773 9.55032C2.39571 10.6459 3.70068 11.758 5.21187 13.0458L5.21295 13.0467ZM1 5.89576C1 4.89023 1.34381 4.00228 1.92504 3.37167L2.25767 8.9122C1.35261 7.82007 1 6.87704 1 5.89576Z" stroke="#0092B4" stroke-width="2"/>
</g>
<defs>
<clipPath id="clip0_669_627">
<rect width="15" height="15" fill="white" transform="translate(0 0.567505)"/>
</clipPath>
</defs>
</svg>
