<svg width="35" height="35" viewBox="0 0 35 35" fill="none" xmlns="http://www.w3.org/2000/svg">
<g clip-path="url(#clip0_691_3222)">
<path d="M6.18652 15.21V10.2197H5.45166C2.44563 10.2197 0 12.6653 0 15.6714V31.9922C0 32.4069 0.249854 32.7808 0.633008 32.9395C0.759883 32.9921 0.893115 33.0176 1.02519 33.0176C1.29206 33.0176 1.55436 32.9135 1.75048 32.7172L5.56883 28.8989H21.311C24.3171 28.8989 26.7627 26.4534 26.7627 23.4473V22.7124H13.689C9.55206 22.7124 6.18652 19.3469 6.18652 15.21Z" fill="white"/>
<path d="M29.5493 1.98242H13.6899C10.6839 1.98242 8.23828 4.42798 8.23828 7.43408V15.21C8.23828 18.2161 10.6839 20.6616 13.6899 20.6616H29.4322L33.2505 24.4799C33.4466 24.6761 33.7089 24.7803 33.9757 24.7803C34.1079 24.7803 34.2411 24.7548 34.3679 24.7022C34.7511 24.5435 35.0009 24.1696 35.0009 23.7549V7.43408C35.001 4.42798 32.5554 1.98242 29.5493 1.98242ZM15.4417 12.2705C14.8668 12.2705 14.4411 11.8007 14.4163 11.2451C14.3914 10.6913 14.9053 10.2197 15.4417 10.2197C16.0165 10.2197 16.4422 10.6896 16.467 11.2451C16.4919 11.7989 15.978 12.2705 15.4417 12.2705ZM21.6196 12.2705C21.0448 12.2705 20.6191 11.8007 20.5942 11.2451C20.5694 10.6913 21.0833 10.2197 21.6196 10.2197C22.1945 10.2197 22.6201 10.6896 22.645 11.2451C22.6698 11.7989 22.156 12.2705 21.6196 12.2705ZM27.7976 12.2705C27.2228 12.2705 26.7971 11.8007 26.7722 11.2451C26.7474 10.6913 27.2613 10.2197 27.7976 10.2197C28.3724 10.2197 28.7981 10.6896 28.823 11.2451C28.8478 11.7989 28.334 12.2705 27.7976 12.2705Z" fill="white"/>
</g>
<defs>
<clipPath id="clip0_691_3222">
<rect width="35" height="35" fill="white"/>
</clipPath>
</defs>
</svg>
