<svg width="35" height="35" viewBox="0 0 35 35" fill="none" xmlns="http://www.w3.org/2000/svg">
<g clip-path="url(#clip0_776_5864)">
<path d="M17.4984 2.37434L22.0566 5.00599L23.0847 3.22528L17.4984 0L11.9121 3.22528L12.9402 5.00599L17.4984 2.37434Z" fill="white"/>
<path d="M4.39999 9.93713L8.95819 7.30548L7.93007 5.52471L2.34375 8.74999V15.2005H4.39999V9.93713Z" fill="white"/>
<path d="M4.39999 19.7995H2.34375V26.2499L7.93007 29.4752L8.95819 27.6945L4.39999 25.0628V19.7995Z" fill="white"/>
<path d="M17.4984 32.6257L12.9402 29.9939L11.9121 31.7747L17.4984 35L23.0847 31.7747L22.0566 29.9939L17.4984 32.6257Z" fill="white"/>
<path d="M30.5991 25.0628L26.041 27.6945L27.0691 29.4752L32.6554 26.2499V19.7995H30.5991V25.0628Z" fill="white"/>
<path d="M27.0691 5.52471L26.041 7.30548L30.5991 9.93713V15.2005H32.6554V8.74999L27.0691 5.52471Z" fill="white"/>
<path d="M28.5399 23.8743V12.3128L18.5273 18.0935V29.6551L28.5399 23.8743Z" fill="white"/>
<path d="M7.48633 10.5321L17.4989 16.3128L27.5115 10.5321L17.4989 4.75129L7.48633 10.5321Z" fill="white"/>
<path d="M6.45898 23.8743L16.4715 29.6551V18.0935L6.45898 12.3128V23.8743Z" fill="white"/>
</g>
<defs>
<clipPath id="clip0_776_5864">
<rect width="35" height="35" fill="white"/>
</clipPath>
</defs>
</svg>
