<svg width="30" height="30" viewBox="0 0 30 30" fill="none" xmlns="http://www.w3.org/2000/svg">
<path d="M29.1211 5.27344H26.4844V26.4844C26.4844 27.5063 26.9273 28.4197 27.6275 29.0593C27.9765 29.378 28.5091 29.3771 28.8579 29.0583C29.5575 28.4188 30 27.5058 30 26.4844V6.15234C30 5.66654 29.6069 5.27344 29.1211 5.27344Z" fill="white"/>
<path d="M10.5469 15.8203H5.27344V21.0938H10.5469V15.8203Z" fill="white"/>
<path d="M19.3359 5.27344H5.27344V10.5469H19.3359V5.27344Z" fill="white"/>
<path d="M24.6094 26.4844C24.6094 -7.3759 24.6094 8.90467 24.6094 0.878906C24.6094 0.393105 24.2163 0 23.7305 0H0.878906C0.393105 0 0 0.393105 0 0.878906V25.6055C0 28.0285 1.9715 30 4.39453 30H25.9809C25.1377 29.0649 24.6094 27.8399 24.6094 26.4844ZM3.51562 14.9414C3.51562 14.4556 3.90873 14.0625 4.39453 14.0625H11.4258C11.9116 14.0625 12.3047 14.4556 12.3047 14.9414V21.9727C12.3047 22.4585 11.9116 22.8516 11.4258 22.8516H4.39453C3.90873 22.8516 3.51562 22.4585 3.51562 21.9727V14.9414ZM20.2148 26.4844H4.39453C3.23596 26.4844 3.23121 24.7266 4.39453 24.7266H20.2148C21.3734 24.7266 21.3782 26.4844 20.2148 26.4844ZM20.2148 22.8516H14.9414C13.7828 22.8516 13.7781 21.0938 14.9414 21.0938H20.2148C21.3734 21.0938 21.3782 22.8516 20.2148 22.8516ZM20.2148 19.3359H14.9414C13.7828 19.3359 13.7781 17.5781 14.9414 17.5781H20.2148C21.3734 17.5781 21.3782 19.3359 20.2148 19.3359ZM20.2148 15.8203H14.9414C13.7828 15.8203 13.7781 14.0625 14.9414 14.0625H20.2148C21.3734 14.0625 21.3782 15.8203 20.2148 15.8203ZM21.0937 11.4258C21.0937 11.9116 20.7006 12.3047 20.2148 12.3047H4.39453C3.90873 12.3047 3.51562 11.9116 3.51562 11.4258V4.39453C3.51562 3.90873 3.90873 3.51562 4.39453 3.51562H20.2148C20.7006 3.51562 21.0937 3.90873 21.0937 4.39453V11.4258Z" fill="white"/>
</svg>
