<svg width="31" height="31" viewBox="0 0 31 31" fill="none" xmlns="http://www.w3.org/2000/svg">
<g clip-path="url(#clip0_691_3239)">
<path d="M31 12.3618H0V29.8791C0 30.3834 0.408873 30.7923 0.913229 30.7923H30.0867C30.5911 30.7923 30.9999 30.3834 30.9999 29.8791V12.3618H31ZM27.8619 28.5674H19.759C19.2547 28.5674 18.8458 28.1585 18.8458 27.6542C18.8458 27.1498 19.2547 26.7409 19.759 26.7409H27.8619C28.3662 26.7409 28.7751 27.1498 28.7751 27.6542C28.7751 28.1585 28.3662 28.5674 27.8619 28.5674ZM27.8619 24.516H19.759C19.2547 24.516 18.8458 24.1071 18.8458 23.6028C18.8458 23.0984 19.2547 22.6896 19.759 22.6896H27.8619C28.3662 22.6896 28.7751 23.0984 28.7751 23.6028C28.7751 24.1071 28.3662 24.516 27.8619 24.516Z" fill="white"/>
<path d="M0 1.1209V10.5354H2.64027V7.39726C2.64027 6.8929 3.04914 6.48403 3.5535 6.48403H27.8619C28.3662 6.48403 28.7751 6.8929 28.7751 7.39726V10.5354H31V5.17234C31 4.66798 30.5911 4.25911 30.0868 4.25911H9.63059C9.28462 4.25911 8.96838 4.06366 8.81369 3.75427L7.29287 0.712512C7.13817 0.403118 6.82194 0.207672 6.47603 0.207672H0.913229C0.408873 0.207672 0 0.616545 0 1.1209H0Z" fill="white"/>
<path d="M4.4668 8.31049H26.9486V10.5354H4.4668V8.31049Z" fill="white"/>
</g>
<defs>
<clipPath id="clip0_691_3239">
<rect width="31" height="31" fill="white"/>
</clipPath>
</defs>
</svg>
