<svg width="32" height="32" viewBox="0 0 32 32" fill="none" xmlns="http://www.w3.org/2000/svg">
<g clip-path="url(#clip0_776_5880)">
<path d="M7.72461 17.6383C7.72461 17.6383 7.72467 17.6385 7.72467 17.6385C7.74325 17.6197 7.74202 17.6209 7.72461 17.6383Z" fill="white"/>
<path d="M31.2905 13.2162L29.6993 12.8335C29.3533 11.3231 28.7573 9.88773 27.9243 8.55311L28.7308 7.19923C28.9505 6.83036 28.891 6.3598 28.588 6.0568L25.9452 3.41398C25.6422 3.11192 25.1726 3.05148 24.8027 3.27117L23.4488 4.07761C22.1142 3.24461 20.6788 2.64867 19.1684 2.30267L18.7858 0.711422C18.6814 0.294923 18.307 0.00192261 17.8768 0.00192261H14.1273C13.697 0.00192261 13.3227 0.29486 13.2183 0.711422L12.8357 2.30267C11.3252 2.64867 9.88984 3.24461 8.55522 4.07761L7.20134 3.27117C6.83247 3.05142 6.36191 3.11098 6.05891 3.41398L3.41597 6.05673C3.11297 6.35973 3.05347 6.83023 3.27316 7.19917L4.07959 8.55304C3.24659 9.88767 2.65066 11.323 2.30466 12.8335L0.713406 13.2161C0.296906 13.3205 0.00390625 13.6949 0.00390625 14.1251V17.8746C0.00390625 18.3049 0.296844 18.6802 0.714281 18.7836L2.30553 19.1662C2.53622 20.1671 2.88341 21.1287 3.32928 22.0509C4.01772 21.3597 7.47534 17.8872 7.72384 17.639C7.71159 17.5759 7.57766 16.3752 7.57409 16.1414C7.49434 11.3647 11.3418 7.5643 16.0056 7.5643C20.7013 7.5643 24.4458 11.3507 24.4281 16.0291C24.408 20.3558 21.1787 24.0392 16.6684 24.376C16.4733 24.391 15.5912 24.5212 14.3616 24.2788L9.96216 28.6782C10.8809 29.1214 11.8388 29.4664 12.8356 29.6962L13.2182 31.2884C13.3226 31.7049 13.697 31.9979 14.1272 31.9979H17.8767C18.307 31.9979 18.6813 31.7049 18.7857 31.2884L19.1683 29.6971C20.6788 29.3511 22.1142 28.7552 23.4488 27.9222L24.8027 28.7286C25.1697 28.9484 25.6412 28.8879 25.9451 28.5858L28.5879 25.943C28.8909 25.64 28.9504 25.1695 28.7307 24.8005L27.9243 23.4467C28.7582 22.112 29.3532 20.6767 29.6992 19.1653L31.2895 18.7836C31.707 18.6802 31.9999 18.3049 31.9999 17.8746V14.1251C31.9999 13.6949 31.707 13.3205 31.2905 13.2162Z" fill="white"/>
<path d="M22.3449 14.2862C22.2626 13.9635 22.0134 13.7096 21.6921 13.6216C21.3709 13.5335 21.0277 13.6253 20.7922 13.8608L18.6531 16C17.9219 16.7312 16.7333 16.7312 16.002 16C15.2715 15.2695 15.2715 14.0795 16.002 13.3489L18.142 11.2089C18.3775 10.9734 18.4685 10.6297 18.3804 10.3086C18.2923 9.98756 18.0387 9.73799 17.716 9.65599C13.7607 8.6508 10.2012 11.2272 9.54836 14.7852C9.33873 15.9569 9.43211 17.1241 9.81561 18.1987C9.28223 18.7322 1.04386 26.9704 0.822419 27.192C-0.277018 28.2914 -0.277018 30.0801 0.839794 31.1969C1.94617 32.2457 3.64061 32.2898 4.80992 31.1796L13.8032 22.1863C15.2434 22.7003 16.8495 22.6899 18.4214 22.1352C21.2535 21.1359 23.2357 17.7819 22.3449 14.2862Z" fill="white"/>
</g>
<defs>
<clipPath id="clip0_776_5880">
<rect width="32" height="32" fill="white"/>
</clipPath>
</defs>
</svg>
