<svg width="37" height="37" viewBox="0 0 37 37" fill="none" xmlns="http://www.w3.org/2000/svg">
<path d="M35.5244 35.1094L29.8045 29.3895C29.3686 29.9906 28.8394 30.5198 28.2383 30.9557L33.9582 36.6756C34.1744 36.8919 34.4578 37 34.7413 37C35.0247 37 35.3081 36.8919 35.5243 36.6756C35.9569 36.2431 35.9569 35.5419 35.5244 35.1094Z" fill="white"/>
<path d="M1.15234 4.60658V24.3875C1.15234 24.9861 1.63768 25.4715 2.23633 25.4715H17.4116C17.4114 25.4473 17.4107 25.4232 17.4107 25.3989C17.4107 24.5675 17.56 23.7704 17.833 23.0327H7.18472C6.6011 23.0327 6.09893 22.5842 6.07146 22.0013C6.04212 21.3789 6.53816 20.865 7.15415 20.865H18.3188C18.5576 20.865 18.7776 20.9431 18.9566 21.0739C20.2115 19.5414 22.1175 18.5617 24.248 18.5617C24.2723 18.5617 24.2963 18.5624 24.3206 18.5627V4.60658H1.15234ZM18.3188 18.4262H7.15408C6.5555 18.4262 6.07016 17.9409 6.07016 17.3422C6.07016 16.7437 6.55543 16.2583 7.15408 16.2583H18.3188C18.9173 16.2583 19.4027 16.7436 19.4027 17.3422C19.4027 17.9409 18.9173 18.4262 18.3188 18.4262ZM19.4027 12.7357C19.4027 13.3343 18.9174 13.8196 18.3188 13.8196H7.15408C6.5555 13.8196 6.07016 13.3344 6.07016 12.7357V8.12916C6.07016 7.53059 6.55543 7.04525 7.15408 7.04525H18.3188C18.9173 7.04525 19.4027 7.53051 19.4027 8.12916V12.7357Z" fill="white"/>
<path d="M1.15234 2.43875H19.714V0H2.23633C1.63768 0 1.15234 0.485336 1.15234 1.08398V2.43875Z" fill="white"/>
<path d="M24.2476 30.0684C26.8265 30.0684 28.9172 27.9778 28.9172 25.3989C28.9172 22.82 26.8265 20.7294 24.2476 20.7294C21.6687 20.7294 19.5781 22.82 19.5781 25.3989C19.5781 27.9778 21.6687 30.0684 24.2476 30.0684Z" fill="white"/>
<path d="M8.23828 9.21307H17.2351V11.6518H8.23828V9.21307Z" fill="white"/>
<path d="M23.2356 0H21.8809V2.43875H24.3196V1.08398C24.3196 0.485336 23.8343 0 23.2356 0Z" fill="white"/>
</svg>
