<svg width="35" height="35" viewBox="0 0 35 35" fill="none" xmlns="http://www.w3.org/2000/svg">
<g clip-path="url(#clip0_691_3283)">
<path fill-rule="evenodd" clip-rule="evenodd" d="M11.041 1.5955V6.1531H18.3761L11.041 1.5955Z" fill="white"/>
<path fill-rule="evenodd" clip-rule="evenodd" d="M31.7544 0H12.3594L22.3322 6.1965C23.2626 6.39092 23.9614 7.21574 23.9614 8.20388V28.3684H31.7544C32.3207 28.3684 32.7798 27.9093 32.7798 27.343V1.02539C32.7798 0.459102 32.3207 0 31.7544 0V0Z" fill="white"/>
<path fill-rule="evenodd" clip-rule="evenodd" d="M11.3201 16.1662L11.2913 16.5876C11.5107 16.5044 11.8274 16.3417 12.0659 16.3559C12.3031 16.3412 12.6227 16.5049 12.8405 16.5877L12.8117 16.1662C12.7726 15.7118 13.0473 15.4317 13.3192 15.1143L12.9095 15.0114C12.4634 14.9069 12.285 14.5616 12.0659 14.2036L11.8415 14.5615C11.6042 14.9535 11.2207 15.0164 10.8125 15.1142C11.0848 15.432 11.3591 15.7118 11.3201 16.1662Z" fill="white"/>
<path fill-rule="evenodd" clip-rule="evenodd" d="M20.8848 8.20388H3.24805C2.68176 8.20388 2.22266 8.66298 2.22266 9.22927V33.9746C2.22266 34.5409 2.68176 35 3.24805 35H20.8848C21.4511 35 21.9102 34.5409 21.9102 33.9746V9.22927C21.9102 8.66298 21.4511 8.20388 20.8848 8.20388ZM8.00189 14.2008C8.111 13.8651 8.38512 13.6091 8.72753 13.5231L10.3236 13.1227L11.1976 11.7285C11.3851 11.4294 11.7134 11.2477 12.0664 11.2477C12.4194 11.2477 12.7477 11.4294 12.9352 11.7285L13.8092 13.1227L15.4053 13.5231C15.7477 13.609 16.0219 13.8651 16.1309 14.2008C16.24 14.5366 16.1687 14.9049 15.9422 15.1757L14.8864 16.4378L14.9987 18.0795C15.0229 18.4317 14.8641 18.7716 14.5785 18.979C14.2929 19.1865 13.9207 19.2326 13.5931 19.1008L12.0665 18.4866L10.5399 19.1008C10.214 19.2321 9.84076 19.1873 9.5544 18.979C9.2688 18.7715 9.11007 18.4317 9.1342 18.0794L9.24665 16.4378L8.19077 15.1757C7.96409 14.9049 7.89279 14.5366 8.00189 14.2008ZM17.8086 31.4453H6.32422C4.96872 31.3966 4.96291 29.4457 6.32422 29.3945H17.8086C19.1641 29.4433 19.1698 31.3941 17.8086 31.4453ZM17.8086 27.3438H6.32422C4.96872 27.295 4.96291 25.3441 6.32422 25.293H17.8086C19.1641 25.3417 19.1698 27.2926 17.8086 27.3438ZM17.8086 23.2422H6.32422C4.96872 23.1935 4.96291 21.2425 6.32422 21.1914H17.8086C19.1641 21.2402 19.1698 23.191 17.8086 23.2422Z" fill="white"/>
</g>
<defs>
<clipPath id="clip0_691_3283">
<rect width="35" height="35" fill="white"/>
</clipPath>
</defs>
</svg>
