<svg width="17" height="18" viewBox="0 0 17 18" fill="none" xmlns="http://www.w3.org/2000/svg">
<path fill-rule="evenodd" clip-rule="evenodd" d="M12.4186 5.62729C12.9684 5.62441 13.4164 5.17645 13.4199 4.62511C13.4239 4.07549 12.9558 3.60628 12.4094 3.61087C11.8596 3.61604 11.4138 4.0663 11.4121 4.61764C11.4098 5.17817 11.8607 5.62958 12.4186 5.62729ZM8.05215 12.3676C9.89396 12.3676 11.3919 10.8681 11.4079 9.00733C11.4239 7.16609 9.89739 5.63038 8.05157 5.63095C6.20804 5.63153 4.71296 7.12876 4.69637 8.99125C4.67978 10.8325 6.20575 12.3676 8.05215 12.3676ZM3.71166 0.916992H12.3926C12.6942 0.980741 13.0043 1.0175 13.2955 1.11283C14.992 1.66819 16.0974 3.19012 16.102 4.98485C16.11 7.66229 16.106 10.3403 16.1031 13.0183C16.102 13.8787 15.8646 14.6712 15.3576 15.3678C14.5234 16.5136 13.3882 17.0793 11.9767 17.081C9.38187 17.0833 6.78708 17.0833 4.19286 17.0793C3.92108 17.0787 3.64529 17.0667 3.37923 17.0184C1.89159 16.7468 0.853105 15.8985 0.285513 14.4955C0.140754 14.1365 0.0926915 13.7374 0 13.3566V4.64256C0.0200259 4.52999 0.0389075 4.41685 0.0595057 4.30371C0.33758 2.81969 1.17581 1.78133 2.5616 1.20932C2.92322 1.06 3.32717 1.01175 3.71166 0.916992Z" fill="#0092B4"/>
</svg>
