<svg width="30" height="30" viewBox="0 0 30 30" fill="none" xmlns="http://www.w3.org/2000/svg">
<path d="M15 11.25C12.9325 11.25 11.25 12.9325 11.25 15C11.25 17.0675 12.9325 18.75 15 18.75C17.0675 18.75 18.75 17.0675 18.75 15C18.75 12.9325 17.0675 11.25 15 11.25Z" fill="white"/>
<path d="M28.9863 12.45L27.3313 12.1312C26.59 11.99 26.0088 11.505 25.7326 10.805C25.4563 10.1012 25.5538 9.34998 26.0013 8.74125L27.0401 7.32375C27.4051 6.82752 27.3513 6.13752 26.9151 5.70252L24.6714 3.45879C24.2488 3.03504 23.5813 2.97252 23.0876 3.30756L21.6914 4.25133C21.0689 4.67508 20.3164 4.74381 19.6226 4.44381C18.9314 4.14129 18.4676 3.54129 18.3539 2.79504L18.0864 1.06002C17.9925 0.45 17.4675 0 16.85 0H13.6775C13.0787 0 12.5637 0.42498 12.45 1.01373L12.0387 3.15123C11.9 3.87498 11.43 4.45248 10.7487 4.73373C10.0675 5.0175 9.32496 4.94121 8.715 4.52748L6.91248 3.3075C6.41871 2.97252 5.75373 3.03498 5.32875 3.45873L3.08502 5.70252C2.64879 6.13752 2.595 6.82752 2.96004 7.32375L3.99879 8.74248C4.44627 9.34998 4.54377 10.1012 4.26756 10.805C3.99129 11.505 3.41004 11.99 2.66754 12.1312L1.01379 12.45C0.42498 12.5637 0 13.0788 0 13.6775V16.85C0 17.4675 0.45 17.9925 1.06002 18.0863L2.79504 18.3537C3.54129 18.4675 4.14129 18.9312 4.44381 19.6225C4.74504 20.3137 4.67508 21.0674 4.25133 21.6925L3.30756 23.0875C2.97129 23.5825 3.03504 24.2474 3.45879 24.6712L5.70252 26.9149C6.13875 27.3524 6.82752 27.4024 7.32375 27.0399L8.74248 26.0012C9.34998 25.5549 10.1 25.4586 10.805 25.7324C11.505 26.0087 11.99 26.5899 12.1312 27.3324L12.45 28.9862C12.5637 29.575 13.0788 30 13.6775 30H16.85C17.4675 30 17.9925 29.55 18.0863 28.94L18.2738 27.72C18.3912 26.9562 18.8675 26.35 19.58 26.0562C20.2875 25.7612 21.0562 25.8525 21.68 26.31L22.6763 27.04C23.17 27.4025 23.8612 27.3525 24.2975 26.915L26.5412 24.6713C26.965 24.2476 27.0287 23.5826 26.6924 23.0876L25.7487 21.6913C25.3249 21.0676 25.2549 20.3139 25.5562 19.6226C25.8587 18.9313 26.4587 18.4676 27.205 18.3538L28.94 18.0864C29.55 17.9926 30 17.4676 30 16.8501V13.6776C30 13.0788 29.575 12.5637 28.9863 12.45ZM15 21.25C11.5538 21.25 8.74998 18.4463 8.74998 15C8.74998 11.5538 11.5538 8.74998 15 8.74998C18.4463 8.74998 21.25 11.5538 21.25 15C21.25 18.4463 18.4463 21.25 15 21.25Z" fill="white"/>
</svg>
