<svg width="26" height="27" viewBox="0 0 26 27" fill="none" xmlns="http://www.w3.org/2000/svg">
<path fill-rule="evenodd" clip-rule="evenodd" d="M4 5.18311H23.5113C24.7751 5.18311 25.722 6.34059 25.4717 7.57929L23.697 16.3607C23.5085 17.2937 22.6885 17.9645 21.7366 17.9645H8.2193C7.26745 17.9645 6.44748 17.2937 6.25893 16.3607L4 5.18311Z" fill="white"/>
<path fill-rule="evenodd" clip-rule="evenodd" d="M0.619031 2.67467C0.284469 1.89055 0.685156 0.987218 1.49097 0.70893L2.24969 0.446905C2.97872 0.195134 3.77835 0.549821 4.08103 1.25923L10.0311 15.2045C10.3657 15.9886 9.96499 16.892 9.15917 17.1703L8.40045 17.4323C7.67142 17.6841 6.8718 17.3294 6.56911 16.62L0.619031 2.67467Z" fill="white"/>
<path fill-rule="evenodd" clip-rule="evenodd" d="M10.6508 26.6C12.1213 26.6 13.3134 25.425 13.3134 23.9755C13.3134 22.526 12.1213 21.351 10.6508 21.351C9.18034 21.351 7.98828 22.526 7.98828 23.9755C7.98828 25.425 9.18034 26.6 10.6508 26.6Z" fill="white"/>
<path fill-rule="evenodd" clip-rule="evenodd" d="M20.4086 26.6C21.8791 26.6 23.0712 25.425 23.0712 23.9755C23.0712 22.526 21.8791 21.351 20.4086 21.351C18.9382 21.351 17.7461 22.526 17.7461 23.9755C17.7461 25.425 18.9382 26.6 20.4086 26.6Z" fill="white"/>
</svg>
