<svg width="30" height="30" viewBox="0 0 30 30" fill="none" xmlns="http://www.w3.org/2000/svg">
<path d="M23.6439 0.842871C23.3432 0.322969 22.7834 0 22.1832 0H15.9102V7.42014H27.448L23.6439 0.842871Z" fill="white"/>
<path d="M14.1506 0H7.8184C7.21699 0 6.65725 0.323555 6.35654 0.844629L2.56641 7.42014H14.1506V0H14.1506Z" fill="white"/>
<path d="M1.9375 9.17859V27.9326C1.9375 29.0727 2.86539 30 4.00545 30H25.9957C27.1357 30 28.0636 29.0727 28.0636 27.9326V9.17859H1.9375ZM18.9917 17.0653L14.4443 21.6127C14.2725 21.7844 14.0474 21.8706 13.8224 21.8706C13.5973 21.8706 13.3722 21.7844 13.201 21.6127L11.0692 19.4814C10.7263 19.1385 10.7263 18.5817 11.0692 18.2382C11.4127 17.8947 11.9696 17.8947 12.313 18.2382L13.8224 19.7481L17.7485 15.8221C18.092 15.4786 18.6488 15.4786 18.9917 15.8221C19.3352 16.1655 19.3352 16.7218 18.9917 17.0653Z" fill="white"/>
</svg>
