<svg width="261" height="33" viewBox="0 0 261 33" fill="none" xmlns="http://www.w3.org/2000/svg">
<mask id="mask0_765_6633" style="mask-type:alpha" maskUnits="userSpaceOnUse" x="0" y="0" width="35" height="28">
<path fill-rule="evenodd" clip-rule="evenodd" d="M0 0.436035H34.7936V27.2096H0V0.436035Z" fill="white"/>
</mask>
<g mask="url(#mask0_765_6633)">
<path fill-rule="evenodd" clip-rule="evenodd" d="M0 0.435059H34.7937V27.2094H26.9486V15.8493C26.9486 11.0225 22.6505 7.07203 17.3975 7.07203C12.1418 7.07203 7.84506 11.0225 7.84506 15.8493V27.2094H0V0.435059Z" fill="#0092B4"/>
</g>
<mask id="mask1_765_6633" style="mask-type:alpha" maskUnits="userSpaceOnUse" x="-1" y="-1" width="262" height="35">
<path fill-rule="evenodd" clip-rule="evenodd" d="M0 32.8303H260V0.436035H0V32.8303Z" fill="white"/>
<path fill-rule="evenodd" clip-rule="evenodd" d="M0 32.8303H260V0.436035H0V32.8303Z" stroke="white"/>
</mask>
<g mask="url(#mask1_765_6633)">
<path fill-rule="evenodd" clip-rule="evenodd" d="M0 32.7855H34.7937V29.4402H0V32.7855Z" fill="#0092B4"/>
<path fill-rule="evenodd" clip-rule="evenodd" d="M72.2058 12.8076H58.7734V16.0813H63.7306V32.8298H67.2514V16.0813H72.2058V12.8076Z" fill="#0092B4"/>
<path fill-rule="evenodd" clip-rule="evenodd" d="M51.7723 21.0861H51.1463H49.4664C47.9598 21.0861 46.7381 19.9693 46.7381 18.5966C46.7381 17.224 47.9598 16.1084 49.4664 16.1084H56.2837V12.7925H49.4664C45.9965 12.7925 43.1719 15.3984 43.1719 18.5966C43.1719 21.7961 45.9965 24.4929 49.4664 24.4929H51.1463H51.7723C53.2774 24.4929 54.5006 25.6084 54.5006 26.9811C54.5006 28.3538 53.2774 29.4706 51.7723 29.4706H43.7635V32.7866H51.7723C55.2421 32.7866 58.0668 30.1806 58.0668 26.9811C58.0668 23.7816 55.2421 21.0861 51.7723 21.0861Z" fill="#0092B4"/>
<path fill-rule="evenodd" clip-rule="evenodd" d="M86.7911 21.1611C85.6767 21.1266 81.2712 21.1279 77.7422 21.156V20.2861C77.7422 17.9667 79.7702 16.0811 82.2646 16.0811C84.7617 16.0811 86.7911 17.9667 86.7911 20.2861V21.1611ZM82.2684 12.8074C77.8354 12.8074 74.2266 16.1642 74.2266 20.2861V32.8309H77.746V24.44C80.9641 24.4208 85.624 24.4144 86.7949 24.4336V32.8309H90.3143V20.2861C90.3143 16.1642 86.7055 12.8074 82.2684 12.8074Z" fill="#0092B4"/>
<path fill-rule="evenodd" clip-rule="evenodd" d="M101.77 12.8076H97.2198H95.4876H93.7266V32.8298H97.246L97.224 16.0813H101.77C104.264 16.0813 106.294 17.967 106.294 20.2864V32.8298H109.813V20.2864C109.813 16.1645 106.204 12.8076 101.77 12.8076Z" fill="#0092B4"/>
<path fill-rule="evenodd" clip-rule="evenodd" d="M120.027 29.4834H116.773V16.2249H120.027C123.961 16.2249 127.158 19.1979 127.158 22.8529C127.158 26.5104 123.961 29.4834 120.027 29.4834ZM120.03 12.8489H113.211V32.8302H115.072H116.776H120.03C125.947 32.8302 130.76 28.3552 130.76 22.8529C130.76 17.3545 125.947 12.8489 120.03 12.8489Z" fill="#0092B4"/>
<path fill-rule="evenodd" clip-rule="evenodd" d="M145.65 21.1611C144.431 21.124 140.115 21.1291 136.602 21.165V20.2861C136.602 17.9667 138.63 16.0811 141.124 16.0811C143.621 16.0811 145.65 17.9667 145.65 20.2861V21.1611ZM141.128 12.8074C136.695 12.8074 133.086 16.1642 133.086 20.2861V32.8309H136.605V24.4451C139.618 24.4221 144.361 24.4131 145.654 24.4336V32.8309H149.174V20.2861C149.174 16.1642 145.565 12.8074 141.128 12.8074Z" fill="#0092B4"/>
<path fill-rule="evenodd" clip-rule="evenodd" d="M183.448 12.8076H170.016V16.0813H174.973V32.8298H178.492V16.0813H183.448V12.8076Z" fill="#0092B4"/>
<path fill-rule="evenodd" clip-rule="evenodd" d="M162.292 21.2886H159.536C159.335 21.2771 156.439 21.2336 156.141 21.2323V16.1765H162.292C163.81 16.1765 165.041 17.3215 165.041 18.7325C165.041 20.1423 163.81 21.2886 162.292 21.2886ZM168.607 18.7325C168.607 15.4959 165.774 12.8618 162.293 12.8618H152.578V15.1198V16.1765V32.8303H156.142V24.6019H159.537C162.619 24.8897 165.042 27.2871 165.042 30.2282V32.8303H168.607V30.2282C168.607 27.6645 167.433 25.3631 165.576 23.7217C167.385 22.6881 168.607 20.8472 168.607 18.7325Z" fill="#0092B4"/>
<path fill-rule="evenodd" clip-rule="evenodd" d="M234.277 21.3292H231.502C231.34 21.319 229.044 21.2896 228.086 21.2768V16.1826H234.277C235.804 16.1826 237.045 17.3353 237.045 18.7553C237.045 20.1753 235.804 21.3292 234.277 21.3292ZM240.627 18.7552C240.627 15.4982 237.775 12.8462 234.272 12.8462H224.492V15.1195V16.1826V32.83H228.08V24.6643H231.497C234.601 24.9547 237.04 27.3687 237.04 30.329V32.83H240.627V30.329C240.627 27.7487 239.446 25.4306 237.576 23.779C239.398 22.739 240.627 20.8853 240.627 18.7552Z" fill="#0092B4"/>
<path fill-rule="evenodd" clip-rule="evenodd" d="M195.707 12.842H185.965L185.945 32.831H189.769V16.3959H195.707C197.154 16.3959 198.331 17.4897 198.331 18.8355C198.331 20.1801 197.154 21.2751 195.707 21.2751H191.652V24.829H195.707C199.261 24.829 202.153 22.1412 202.153 18.8355C202.153 15.5311 199.261 12.842 195.707 12.842Z" fill="#0092B4"/>
<path fill-rule="evenodd" clip-rule="evenodd" d="M217.349 21.2691H208.531V20.49C208.531 18.2307 210.51 16.3911 212.941 16.3911C215.372 16.3911 217.349 18.2307 217.349 20.49V21.2691ZM212.943 12.8374C208.404 12.8374 204.711 16.2697 204.711 20.4901V32.8302H208.533V24.7988H217.351V32.8302H221.173V20.4901C221.173 16.2697 217.482 12.8374 212.943 12.8374Z" fill="#0092B4"/>
<path fill-rule="evenodd" clip-rule="evenodd" d="M260.006 16.0154V12.8376H256.435V16.0154C256.435 18.89 253.92 21.2285 250.83 21.2285H250.654C250.54 21.2247 250.428 21.2119 250.313 21.2119H247.608V12.8376H244.039V32.8304H247.608V24.547H250.485C253.78 24.634 256.435 27.1389 256.435 30.2232V32.8304H260.006V30.2232C260.006 27.2668 258.458 24.6455 256.082 23.0004C258.451 21.4562 260.006 18.9041 260.006 16.0154Z" fill="#0092B4"/>
</g>
</svg>
