<svg width="117" height="38" viewBox="0 0 117 38" fill="none" xmlns="http://www.w3.org/2000/svg">
<g clip-path="url(#clip0_844_105)">
<path fill-rule="evenodd" clip-rule="evenodd" d="M2.50476 35.3555L3.24237 35.6781C3.15017 36.2618 2.96577 36.6766 2.68916 36.9223C2.41256 37.1988 2.05913 37.3371 1.62886 37.3371C1.13712 37.3371 0.737588 37.122 0.430253 36.6919C0.0614514 36.2004 -0.122948 35.5399 -0.122948 34.7104C-0.122948 33.8195 0.0614514 33.1282 0.430253 32.6367C0.737588 32.2066 1.16786 31.9915 1.72106 31.9915C2.15133 31.9915 2.50476 32.1451 2.78137 32.4524C2.9965 32.6981 3.15017 33.0514 3.24237 33.5122L2.45866 33.7427C2.42793 33.4662 2.33573 33.2511 2.18206 33.0975C2.0284 32.9439 1.85936 32.8671 1.67496 32.8671C1.36762 32.8671 1.12176 33.0053 0.937357 33.2818C0.752956 33.5583 0.660754 34.0038 0.660754 34.6182C0.660754 35.2941 0.752956 35.7703 0.937357 36.0468C1.12176 36.3233 1.35226 36.4615 1.62886 36.4615C1.84399 36.4615 2.0284 36.3693 2.18206 36.185C2.33573 36.0007 2.4433 35.7242 2.50476 35.3555ZM3.93387 37.2449V32.0837H4.67147V35.5399L6.23888 32.0837H7.02259V37.2449H6.28498V33.8809L4.71758 37.2449H3.93387ZM10.3418 35.3555L11.0794 35.6781C10.9565 36.2618 10.7721 36.6766 10.5262 36.9223C10.2496 37.1988 9.89617 37.3371 9.4659 37.3371C8.97416 37.3371 8.57463 37.122 8.26729 36.6919C7.89849 36.2004 7.71409 35.5399 7.71409 34.7104C7.71409 33.8195 7.89849 33.1282 8.26729 32.6367C8.57463 32.2066 8.98953 31.9915 9.512 31.9915C9.973 31.9915 10.3418 32.1451 10.6184 32.4524C10.8335 32.6981 10.9872 33.0514 11.0794 33.5122L10.2957 33.7427C10.265 33.4662 10.1728 33.2511 10.0191 33.0975C9.86543 32.9439 9.6964 32.8671 9.512 32.8671C9.20466 32.8671 8.9588 33.0053 8.77439 33.2818C8.58999 33.5583 8.49779 34.0038 8.49779 34.6182C8.49779 35.2941 8.58999 35.7703 8.77439 36.0468C8.9588 36.3233 9.1893 36.4615 9.4659 36.4615C9.68103 36.4615 9.86543 36.3693 10.0191 36.185C10.1728 36.0007 10.2803 35.7242 10.3418 35.3555ZM12.6468 37.2449V32.9593H11.4943V32.0837H14.583V32.9593H13.4305V37.2449H12.6468ZM15.0901 37.2449V32.0837H17.9944V32.9593H15.8738V34.1113H17.81V34.9408H15.8738V36.3693H18.0405V37.2449H15.0901ZM18.6859 37.2449V32.0837H19.8846L20.5761 35.5859L21.2676 32.0837H22.4662V37.2449H21.7286V33.1897L20.9449 37.2449H20.2073L19.4235 33.1897V37.2449H18.6859ZM23.2499 37.2449V32.0837H24.0336V34.1113H25.14C25.5702 34.1113 25.8929 34.2649 26.1081 34.5721C26.3539 34.8486 26.4769 35.2326 26.4769 35.7242C26.4769 36.0928 26.3847 36.4461 26.2003 36.7841C26.0159 37.0913 25.6624 37.2449 25.14 37.2449H23.2499ZM24.0336 34.9869V36.3693H24.8634C25.0785 36.3693 25.2322 36.354 25.3244 36.3233C25.4166 36.2925 25.5088 36.2157 25.601 36.0928C25.6624 35.97 25.6932 35.8317 25.6932 35.6781C25.6932 35.2173 25.4319 34.9869 24.9095 34.9869H24.0336ZM27.1223 37.2449V32.0837H27.906V37.2449H27.1223ZM30.1649 32.0837H31.7323C32.1318 32.0837 32.4238 32.1144 32.6082 32.1759C32.7926 32.268 32.9309 32.4216 33.0231 32.6367C33.146 32.8517 33.2075 33.0975 33.2075 33.374C33.2075 33.6198 33.1614 33.8502 33.0692 34.0652C32.977 34.2496 32.8387 34.3878 32.6543 34.48C32.9002 34.5721 33.0846 34.7257 33.2075 34.9408C33.3304 35.1558 33.3919 35.417 33.3919 35.7242C33.3919 36.1236 33.3151 36.4461 33.1614 36.6919C33.0077 36.9684 32.808 37.1374 32.5621 37.1988C32.4084 37.2295 32.055 37.2449 31.5018 37.2449H30.1649V32.0837ZM30.9486 32.9593V34.1574H31.4557C31.763 34.1574 31.9628 34.142 32.055 34.1113C32.1779 34.1113 32.2701 34.0499 32.3316 33.927C32.4238 33.8348 32.4699 33.6966 32.4699 33.5122C32.4699 33.3586 32.4392 33.2358 32.3777 33.1436C32.3162 33.0514 32.2394 32.99 32.1472 32.9593C32.055 32.9593 31.8091 32.9593 31.4096 32.9593H30.9486ZM30.9486 34.9869V36.3693H31.6401C31.9782 36.3693 32.1933 36.354 32.2855 36.3233C32.3777 36.2925 32.4545 36.2311 32.516 36.1389C32.5775 36.016 32.6082 35.8778 32.6082 35.7242C32.6082 35.5399 32.5775 35.4016 32.516 35.3094C32.4238 35.1866 32.3316 35.1098 32.2394 35.079C32.1165 35.0176 31.886 34.9869 31.5479 34.9869H30.9486ZM34.1295 37.2449V32.0837H34.9132V34.1113H36.4345V32.0837H37.2182V37.2449H36.4345V34.9869H34.9132V37.2449H34.1295ZM39.0622 35.8164L37.6331 32.0837H38.509L39.431 34.7565L40.2147 32.0837H40.9985L39.7076 36.0007C39.554 36.4922 39.4003 36.8302 39.2466 37.0145C39.093 37.2295 38.9086 37.3371 38.6934 37.3371C38.4783 37.3371 38.2939 37.3063 38.1402 37.2449V36.5076C38.2632 36.5076 38.3554 36.5076 38.4168 36.5076C38.632 36.5076 38.7703 36.4615 38.8317 36.3693C38.9239 36.2772 39.0008 36.0928 39.0622 35.8164ZM42.2893 37.2449V32.9593H41.1368V32.0837H44.2255V32.9593H43.073V37.2449H42.2893ZM44.7326 37.2449V32.0837H45.9773C46.4383 32.0837 46.7456 32.1144 46.8993 32.1759C47.1451 32.2373 47.3296 32.4063 47.4525 32.6828C47.6062 32.9285 47.683 33.2665 47.683 33.6966C47.683 34.0652 47.6215 34.3724 47.4986 34.6182C47.3757 34.864 47.222 35.0483 47.0376 35.1712C46.8224 35.2634 46.4844 35.3094 46.0234 35.3094H45.5163V37.2449H44.7326ZM45.5163 32.9593V34.4339H45.9312C46.2385 34.4339 46.4383 34.4032 46.5305 34.3417C46.6227 34.311 46.7149 34.2342 46.8071 34.1113C46.8685 33.9884 46.8993 33.8502 46.8993 33.6966C46.8993 33.5122 46.8685 33.3586 46.8071 33.2358C46.7149 33.1436 46.6227 33.0668 46.5305 33.0053C46.4383 32.9746 46.2231 32.9593 45.8851 32.9593H45.5163ZM48.3745 37.2449V32.0837H51.2327V32.9593H49.1582V34.1113H51.0944V34.9869H49.1582V36.3693H51.3249V37.2449H48.3745ZM51.9703 37.2449V32.0837H52.754V34.1113H54.3214V32.0837H55.1051V37.2449H54.3214V34.9869H52.754V37.2449H51.9703ZM55.8888 37.2449V32.0837H56.6725V34.1113H58.2399V32.0837H59.0236V37.2449H58.2399V34.9869H56.6725V37.2449H55.8888ZM59.8073 37.2449V32.0837H62.7117V32.9593H60.5911V34.1113H62.5734V34.9869H60.5911V36.3693H62.8039V37.2449H59.8073ZM63.4032 37.2449V32.1298H66.1692V33.0053H64.1869V37.2449H63.4032ZM66.538 34.7104C66.538 34.096 66.6148 33.589 66.7685 33.1897C66.9221 32.7903 67.1373 32.4831 67.4139 32.268C67.6905 32.0837 68.0286 31.9915 68.4281 31.9915C68.9813 31.9915 69.4269 32.222 69.765 32.6828C70.1031 33.1436 70.2721 33.8041 70.2721 34.6643C70.2721 35.5245 70.0877 36.2004 69.7189 36.6919C69.4116 37.122 68.9813 37.3371 68.4281 37.3371C67.8442 37.3371 67.3985 37.122 67.0912 36.6919C66.7224 36.2311 66.538 35.5706 66.538 34.7104ZM67.3217 34.6643C67.3217 35.2787 67.4292 35.7242 67.6444 36.0007C67.8595 36.3079 68.1208 36.4615 68.4281 36.4615C68.7354 36.4615 68.9813 36.3079 69.1657 36.0007C69.3808 35.7242 69.4884 35.2787 69.4884 34.6643C69.4884 34.0499 69.3808 33.6044 69.1657 33.3279C68.9813 33.0207 68.7354 32.8671 68.4281 32.8671C68.09 32.8671 67.8288 33.0207 67.6444 33.3279C67.4292 33.6044 67.3217 34.0499 67.3217 34.6643ZM72.3927 32.0837H73.9601C74.3904 32.0837 74.6977 32.1298 74.8821 32.222C75.0358 32.3141 75.1741 32.4677 75.297 32.6828C75.42 32.8671 75.4814 33.0975 75.4814 33.374C75.4814 33.6198 75.4353 33.8502 75.3431 34.0652C75.2202 34.2803 75.0819 34.4339 74.9282 34.5261C75.1741 34.6182 75.3585 34.7718 75.4814 34.9869C75.6044 35.2019 75.6658 35.4631 75.6658 35.7703C75.6658 36.1389 75.589 36.4615 75.4353 36.738C75.2509 36.9838 75.0512 37.1374 74.836 37.1988C74.6824 37.2295 74.3136 37.2449 73.7296 37.2449H72.3927V32.0837ZM73.1764 32.9593V34.1574H73.7296C74.0369 34.1574 74.2214 34.1574 74.2828 34.1574C74.4058 34.1267 74.5133 34.0652 74.6055 33.9731C74.667 33.8502 74.6977 33.7119 74.6977 33.5583C74.6977 33.4047 74.667 33.2818 74.6055 33.1897C74.5441 33.0975 74.4826 33.0361 74.4211 33.0053C74.3289 32.9746 74.0677 32.9593 73.6374 32.9593H73.1764ZM73.1764 35.033V36.4154H73.914C74.2214 36.4154 74.4211 36.4001 74.5133 36.3693C74.6055 36.3079 74.6824 36.2311 74.7438 36.1389C74.8053 36.0468 74.836 35.9085 74.836 35.7242C74.836 35.5706 74.8053 35.4323 74.7438 35.3094C74.6824 35.1866 74.6055 35.1098 74.5133 35.079C74.3904 35.0483 74.1599 35.033 73.8218 35.033H73.1764ZM76.1729 34.7104C76.1729 34.096 76.2498 33.589 76.4034 33.1897C76.5878 32.7903 76.803 32.4984 77.0488 32.3141C77.3254 32.1298 77.6635 32.0376 78.063 32.0376C78.6162 32.0376 79.0619 32.268 79.3999 32.7288C79.7687 33.1897 79.9531 33.8502 79.9531 34.7104C79.9531 35.5706 79.7534 36.2465 79.3538 36.738C79.0465 37.1681 78.6162 37.3831 78.063 37.3831C77.4791 37.3831 77.0335 37.1681 76.7261 36.738C76.3573 36.2465 76.1729 35.5706 76.1729 34.7104ZM76.9566 34.7104C76.9566 35.2941 77.0642 35.7396 77.2793 36.0468C77.4945 36.3233 77.7557 36.4615 78.063 36.4615C78.3704 36.4615 78.6162 36.3233 78.8006 36.0468C79.0158 35.7396 79.1233 35.2787 79.1233 34.6643C79.1233 34.0806 79.0311 33.6351 78.8467 33.3279C78.6316 33.0514 78.3704 32.9132 78.063 32.9132C77.725 32.9132 77.4637 33.0514 77.2793 33.3279C77.0642 33.6351 76.9566 34.096 76.9566 34.7104ZM83.549 36.4154H83.8717V38.3969H83.2263V37.291H80.7829V38.3969H80.1375V36.4154H80.4602C80.5832 36.0468 80.6754 35.6013 80.7369 35.079C80.829 34.5875 80.8752 33.8195 80.8752 32.7749V32.0837H83.549V36.4154ZM82.7653 33.0053H81.6128C81.6128 34.5414 81.5052 35.6781 81.2901 36.4154H82.7653V33.0053ZM84.2405 34.7565C84.2405 34.142 84.3327 33.6351 84.5171 33.2358C84.6707 32.8364 84.8859 32.5445 85.1625 32.3602C85.4391 32.1759 85.7618 32.0837 86.1306 32.0837C86.6838 32.0837 87.1448 32.3141 87.5136 32.7749C87.8517 33.2358 88.0207 33.8963 88.0207 34.7565C88.0207 35.6167 87.8363 36.2925 87.4675 36.7841C87.1601 37.2142 86.7145 37.4292 86.1306 37.4292C85.5774 37.4292 85.1317 37.2142 84.7937 36.7841C84.4249 36.2925 84.2405 35.6167 84.2405 34.7565ZM85.0703 34.7565C85.0703 35.3402 85.1778 35.7856 85.393 36.0928C85.5774 36.3693 85.8232 36.5076 86.1306 36.5076C86.4379 36.5076 86.6991 36.3693 86.9143 36.0928C87.1294 35.7856 87.237 35.3248 87.237 34.7104C87.237 34.1267 87.1294 33.6812 86.9143 33.374C86.7299 33.0975 86.4686 32.9593 86.1306 32.9593C85.8232 32.9593 85.562 33.0975 85.3469 33.374C85.1625 33.6812 85.0703 34.142 85.0703 34.7565ZM88.4817 34.7565C88.4817 34.142 88.5739 33.6351 88.7583 33.2358C88.912 32.8364 89.1271 32.5445 89.4037 32.3602C89.6803 32.1759 90.003 32.0837 90.3718 32.0837C90.925 32.0837 91.386 32.3141 91.7548 32.7749C92.0929 33.2358 92.2619 33.8963 92.2619 34.7565C92.2619 35.6167 92.0775 36.2925 91.7087 36.7841C91.3706 37.2142 90.925 37.4292 90.3718 37.4292C89.8186 37.4292 89.373 37.2142 89.0349 36.7841C88.6661 36.2925 88.4817 35.6167 88.4817 34.7565ZM89.3115 34.7565C89.3115 35.3402 89.4037 35.7856 89.5881 36.0928C89.8032 36.3693 90.0645 36.5076 90.3718 36.5076C90.6791 36.5076 90.9404 36.3693 91.1555 36.0928C91.3399 35.7856 91.4321 35.3248 91.4321 34.7104C91.4321 34.1267 91.3399 33.6812 91.1555 33.374C90.9404 33.0975 90.6791 32.9593 90.3718 32.9593C90.0645 32.9593 89.8032 33.0975 89.5881 33.374C89.4037 33.6812 89.3115 34.142 89.3115 34.7565ZM93.7371 37.3371V33.0053H92.5846V32.1298H95.6733V33.0053H94.5208V37.3371H93.7371ZM96.1804 32.1298H97.7478C98.1781 32.1298 98.4701 32.1759 98.6237 32.268C98.8081 32.3602 98.9618 32.5138 99.0847 32.7288C99.2077 32.9439 99.2691 33.1897 99.2691 33.4662C99.2691 33.7119 99.2077 33.927 99.0847 34.1113C98.9925 34.3264 98.8696 34.48 98.7159 34.5721C98.9311 34.6643 99.1155 34.8179 99.2691 35.033C99.3921 35.248 99.4535 35.5091 99.4535 35.8164C99.4535 36.2157 99.3613 36.5383 99.1769 36.7841C99.0233 37.0298 98.8389 37.1835 98.6237 37.2449C98.4393 37.3063 98.0705 37.3371 97.5173 37.3371H96.1804V32.1298ZM96.9641 33.0053V34.2035H97.4712C97.7786 34.2035 97.9783 34.1881 98.0705 34.1574C98.1935 34.1267 98.301 34.0652 98.3932 33.9731C98.4547 33.8809 98.4854 33.7427 98.4854 33.5583C98.4854 33.4047 98.4547 33.2818 98.3932 33.1897C98.3318 33.0975 98.2549 33.0361 98.1627 33.0053C98.0705 33.0053 97.8247 33.0053 97.4251 33.0053H96.9641ZM96.9641 35.033V36.4154H97.7017C98.0091 36.4154 98.2088 36.4001 98.301 36.3693C98.3932 36.3386 98.4701 36.2618 98.5315 36.1389C98.593 36.0468 98.6237 35.9239 98.6237 35.7703C98.6237 35.5859 98.593 35.4477 98.5315 35.3555C98.4701 35.2326 98.3779 35.1558 98.2549 35.1251C98.1627 35.0637 97.9476 35.033 97.6095 35.033H96.9641ZM99.9145 34.7565C99.9145 34.142 100.007 33.6351 100.191 33.2358C100.345 32.8364 100.56 32.5292 100.837 32.3141C101.113 32.1298 101.436 32.0376 101.805 32.0376C102.358 32.0376 102.819 32.268 103.188 32.7288C103.526 33.1897 103.695 33.8502 103.695 34.7104C103.695 35.5706 103.51 36.2465 103.142 36.738C102.834 37.1681 102.389 37.3831 101.805 37.3831C101.251 37.3831 100.821 37.1681 100.514 36.738C100.114 36.2465 99.9145 35.5859 99.9145 34.7565ZM100.744 34.7104C100.744 35.2941 100.852 35.7396 101.067 36.0468C101.251 36.354 101.497 36.5076 101.805 36.5076C102.112 36.5076 102.373 36.354 102.588 36.0468C102.803 35.7703 102.911 35.3248 102.911 34.7104C102.911 34.096 102.803 33.6505 102.588 33.374C102.404 33.0668 102.143 32.9132 101.805 32.9132C101.497 32.9132 101.251 33.0668 101.067 33.374C100.852 33.6505 100.744 34.096 100.744 34.7104ZM107.337 36.4154H107.659V38.443H107.014V37.291H104.571V38.443H103.925V36.4154H104.248C104.371 36.0468 104.463 35.6167 104.525 35.1251C104.586 34.6029 104.617 33.8348 104.617 32.821V32.1298H107.337V36.4154ZM106.553 32.9593H105.354C105.354 34.4953 105.247 35.6474 105.032 36.4154H106.553V32.9593ZM111.67 37.2449H110.84L110.518 36.0928H108.95L108.627 37.2449H107.798L109.319 32.0837H110.149L111.67 37.2449ZM110.195 35.1712L109.688 33.2818L109.135 35.1712H110.195ZM-0.215149 -0.404175H27.445V21.9456H21.2215V12.7292C21.2215 8.62792 17.81 5.26392 13.6149 5.26392C9.4659 5.26392 6.05448 8.62792 6.05448 12.7292V21.9456H-0.215149V-0.404175ZM-0.215149 23.3281H27.445V27.199H-0.215149V23.3281ZM114.067 7.52195C114.713 7.52195 115.358 7.79844 115.773 8.25926C116.234 8.674 116.511 9.27306 116.511 9.9643C116.511 10.6555 116.234 11.2546 115.773 11.6693C115.358 12.1302 114.713 12.4066 114.067 12.4066C113.376 12.4066 112.777 12.1302 112.315 11.6693C111.901 11.2546 111.624 10.6555 111.624 9.9643C111.624 9.27306 111.901 8.674 112.315 8.25926C112.777 7.79844 113.376 7.52195 114.067 7.52195ZM114.067 7.98277H114.021C113.514 8.02885 113.007 8.21318 112.684 8.58183C112.316 8.95049 112.085 9.41131 112.085 9.9643C112.085 10.5173 112.316 10.9781 112.638 11.3468C113.007 11.7154 113.514 11.9458 114.067 11.9458C114.574 11.9458 115.082 11.7154 115.45 11.3468C115.773 10.9781 116.004 10.5173 116.004 9.9643C116.004 9.41131 115.773 8.95049 115.45 8.58183C115.082 8.21318 114.574 7.98277 114.067 7.98277ZM112.961 11.3007V8.674H114.344C114.651 8.674 114.866 8.73544 114.989 8.85833C115.143 9.01193 115.22 9.19626 115.22 9.41131C115.22 9.56492 115.174 9.70317 115.082 9.82605C115.02 9.91821 114.943 9.97966 114.851 10.0104C114.851 10.0104 114.836 10.0257 114.805 10.0565C114.805 10.0565 114.79 10.0565 114.759 10.0565C114.912 10.0872 115.005 10.1486 115.035 10.2408C115.097 10.333 115.128 10.4405 115.128 10.5634C115.128 10.5941 115.128 10.6094 115.128 10.6094C115.128 10.6402 115.128 10.6709 115.128 10.7016C115.128 10.8552 115.143 10.9781 115.174 11.0703C115.174 11.1317 115.189 11.1932 115.22 11.2546C115.22 11.2546 115.235 11.27 115.266 11.3007H114.574C114.544 11.2392 114.528 11.1624 114.528 11.0703C114.498 11.0088 114.482 10.8859 114.482 10.7016C114.482 10.6709 114.482 10.6555 114.482 10.6555C114.482 10.5634 114.451 10.4866 114.39 10.4251C114.329 10.3637 114.221 10.333 114.067 10.333H113.606V11.3007H112.961ZM113.606 9.1809V9.82605H114.16C114.252 9.82605 114.344 9.81069 114.436 9.77997C114.498 9.71852 114.528 9.62636 114.528 9.50348C114.528 9.38059 114.498 9.28842 114.436 9.22698C114.344 9.19626 114.236 9.1809 114.113 9.1809H113.606ZM35.5125 12.4527H39.0161V27.2451H35.5125V12.4527ZM41.1368 12.4527H44.6404V13.0979C45.0092 12.8521 45.4394 12.6678 45.9312 12.5449C46.4229 12.3913 46.9146 12.3145 47.4064 12.3145C47.8059 12.3145 48.144 12.3759 48.4206 12.4988C48.6665 12.6217 48.8662 12.7753 49.0199 12.9596C49.1428 13.144 49.235 13.3436 49.2965 13.5587C49.358 13.7737 49.3887 13.9734 49.3887 14.1578C49.3887 14.3421 49.3887 14.4957 49.3887 14.6186V27.2912H45.8851V14.8951C45.8851 14.7722 45.839 14.68 45.7468 14.6186C45.6853 14.5571 45.6085 14.5111 45.5163 14.4803C45.4241 14.4189 45.3472 14.4035 45.2858 14.4343C45.1321 14.4343 44.9938 14.4803 44.8709 14.5725C44.7172 14.6647 44.6404 14.7722 44.6404 14.8951V27.2912H41.1368V12.4527ZM51.5093 15.0333C51.5093 14.4189 51.6015 13.9274 51.7859 13.5587C51.9396 13.2208 52.1547 12.9596 52.4313 12.7753C52.7079 12.6217 53.0152 12.5295 53.3533 12.4988C53.6606 12.4374 53.9526 12.422 54.2292 12.4527H57.0413C57.6867 12.4527 58.2092 12.5295 58.6087 12.6831C58.9775 12.8367 59.2388 13.0364 59.3924 13.2822C59.5768 13.5587 59.6844 13.8506 59.7151 14.1578C59.7459 14.465 59.7612 14.7568 59.7612 15.0333V24.6184C59.7612 24.9256 59.7459 25.2328 59.7151 25.54C59.6844 25.8473 59.5768 26.1238 59.3924 26.3695C59.2388 26.646 58.9775 26.8611 58.6087 27.0147C58.2092 27.1683 57.6867 27.2451 57.0413 27.2451H54.2292C53.9526 27.2451 53.6606 27.2297 53.3533 27.199C53.0152 27.1683 52.7079 27.0608 52.4313 26.8764C52.1547 26.7228 51.9396 26.4617 51.7859 26.093C51.6015 25.7551 51.5093 25.2636 51.5093 24.6184V15.0333ZM55.0129 24.8488C55.0129 24.9103 55.0437 24.9717 55.1051 25.0331C55.1359 25.0946 55.1973 25.156 55.2895 25.2175C55.3817 25.2789 55.5047 25.3096 55.6583 25.3096C55.8427 25.3096 55.981 25.2635 56.0732 25.1714C56.1962 25.0792 56.2576 24.9717 56.2576 24.8488V14.849C56.2576 14.7261 56.2115 14.6339 56.1193 14.5725C56.0579 14.4803 55.981 14.4189 55.8888 14.3882C55.7966 14.3575 55.7198 14.3421 55.6583 14.3421C55.5047 14.3421 55.351 14.3882 55.1973 14.4803C55.0744 14.5725 55.0129 14.6954 55.0129 14.849V24.8488ZM61.3748 12.4527H65.0167L65.8465 16.8766H66.0309L66.9068 12.4527H70.5487L68.7047 19.5033L70.5487 27.2451H66.9068L66.0309 22.13H65.8465L64.9706 27.2451H61.3748L63.1727 19.5033L61.3748 12.4527ZM72.1161 12.4527H75.6197V13.144C75.9885 12.8982 76.4188 12.6985 76.9105 12.5449C77.4023 12.3913 77.894 12.3145 78.3857 12.3145C78.7853 12.3145 79.1233 12.3759 79.3999 12.4988C79.6458 12.6217 79.8456 12.7753 79.9992 12.9596C80.1222 13.144 80.2144 13.3436 80.2758 13.5587C80.3373 13.7737 80.368 13.9734 80.368 14.1578C80.368 14.3421 80.368 14.4957 80.368 14.6186V25.1253C80.368 25.2482 80.368 25.4018 80.368 25.5861C80.368 25.7705 80.3373 25.9701 80.2758 26.1852C80.2144 26.4002 80.1222 26.5999 79.9992 26.7843C79.8456 26.9686 79.6458 27.1222 79.3999 27.2451C79.1233 27.368 78.7853 27.4294 78.3857 27.4294C77.894 27.4294 77.4023 27.3526 76.9105 27.199C76.4188 27.0454 75.9885 26.8457 75.6197 26.5999V30.3787H72.1161V12.4527ZM75.6197 24.8027C75.6197 24.8949 75.6505 24.9717 75.7119 25.0331C75.7427 25.0946 75.8041 25.156 75.8963 25.2175C75.9885 25.2789 76.1115 25.3096 76.2651 25.3096C76.4495 25.3096 76.5878 25.2635 76.68 25.1714C76.803 25.0792 76.8644 24.9563 76.8644 24.8027V14.8951C76.8644 14.7722 76.8183 14.68 76.7261 14.6186C76.6647 14.5264 76.5878 14.465 76.4956 14.4343C76.4034 14.4035 76.3266 14.3882 76.2651 14.3882C76.1115 14.3882 75.9732 14.4343 75.8502 14.5264C75.6966 14.6186 75.6197 14.7415 75.6197 14.8951V24.8027ZM82.4887 15.0333C82.4887 14.4189 82.5809 13.9274 82.7653 13.5587C82.9189 13.2208 83.1341 12.9596 83.4107 12.7753C83.6873 12.6217 83.9946 12.5295 84.3327 12.4988C84.64 12.4374 84.932 12.4066 85.2086 12.4066H88.0207C88.6661 12.4374 89.1886 12.5295 89.5881 12.6831C89.9569 12.8367 90.2181 13.0364 90.3718 13.2822C90.5562 13.5587 90.6638 13.8506 90.6945 14.1578C90.7252 14.4343 90.7406 14.7261 90.7406 15.0333V27.2451H87.237V26.5999C86.9911 26.7535 86.7145 26.8918 86.4072 27.0147C86.0998 27.1376 85.7925 27.2297 85.4852 27.2912C85.1471 27.3526 84.8244 27.3833 84.5171 27.3833C84.0253 27.3833 83.6412 27.3065 83.3646 27.1529C83.088 26.9993 82.8882 26.815 82.7653 26.5999C82.6423 26.3542 82.5655 26.093 82.5348 25.8165C82.504 25.5708 82.4887 25.3404 82.4887 25.1253V21.3466C82.4887 20.9779 82.5809 20.6553 82.7653 20.3789C82.9804 20.1331 83.2877 19.9027 83.6873 19.6876C84.0868 19.4726 84.5939 19.2422 85.2086 18.9964C85.6081 18.8428 85.9615 18.6738 86.2689 18.4895C86.5762 18.3359 86.8067 18.1515 86.9604 17.9365C87.1448 17.6907 87.237 17.3682 87.237 16.9688V14.849C87.237 14.7261 87.1909 14.6339 87.0987 14.5725C87.0372 14.4803 86.9604 14.4189 86.8682 14.3882C86.776 14.3575 86.6992 14.3421 86.6377 14.3421C86.484 14.3421 86.3457 14.3882 86.2228 14.4803C86.0691 14.5725 85.9923 14.6954 85.9923 14.849V17.1531H82.4887V15.0333ZM87.237 19.9641C86.8374 20.087 86.5455 20.2252 86.3611 20.3789C86.2074 20.5325 86.0998 20.6861 86.0384 20.8397C86.0076 21.024 85.9923 21.193 85.9923 21.3466V24.8027C85.9923 24.8642 86.023 24.9256 86.0845 24.9871C86.1152 25.0485 86.1767 25.1099 86.2689 25.1714C86.3611 25.2328 86.484 25.2636 86.6377 25.2636C86.8221 25.2636 86.9604 25.2175 87.0526 25.1253C87.1755 25.0331 87.237 24.9256 87.237 24.8027V19.9641ZM96.3648 12.3606V13.0518C96.7336 12.806 97.1639 12.6063 97.6556 12.4527C98.1166 12.2991 98.6084 12.2223 99.1308 12.2223C99.5304 12.2223 99.8684 12.2838 100.145 12.4066C100.391 12.5295 100.591 12.6831 100.744 12.8675C100.867 13.0518 100.959 13.2515 101.021 13.4665C101.082 13.6816 101.113 13.8813 101.113 14.0656C101.113 14.2499 101.113 14.4035 101.113 14.5264V17.5678H97.6095V14.849C97.6095 14.7261 97.5634 14.6186 97.4712 14.5264C97.4098 14.465 97.3329 14.4189 97.2407 14.3882C97.1485 14.3575 97.0717 14.3421 97.0102 14.3421C96.8566 14.3421 96.7029 14.3882 96.5492 14.4803C96.4263 14.5725 96.3648 14.6954 96.3648 14.849V27.199H92.8612V12.3606H96.3648ZM102.819 7.47586H106.369V18.766H106.507L107.798 12.3606H111.393L109.596 19.5033L111.624 27.199H108.028L106.507 20.1945H106.369V27.199H102.819V7.47586ZM32.7004 4.38836C34.2217 5.90907 35.8813 7.42978 37.0799 7.42978C38.3246 7.42978 42.151 3.55889 43.995 1.99209C42.3354 3.7893 38.4629 7.75236 38.4629 8.85833C38.4629 9.9643 38.9239 10.333 40.5374 12.2223C38.6473 10.5173 38.1402 10.2408 37.0799 10.2408C35.9274 10.2408 34.36 11.7615 32.7004 13.2822C34.0373 11.6233 35.6969 10.0565 35.6969 8.85833C35.6969 7.70627 34.0834 6.04732 32.7004 4.38836Z" fill="#0092B4"/>
<path d="M32.7926 4.43442C34.3139 5.95512 35.9735 7.47583 37.1721 7.47583C38.4629 7.47583 42.2431 3.60494 44.0872 2.08423C42.4275 3.83535 38.5551 7.79841 38.5551 8.90438C38.5551 10.0103 39.0161 10.379 40.6296 12.2684C38.7395 10.5633 38.2324 10.2868 37.1721 10.2868C36.0196 10.2868 34.4522 11.8075 32.7926 13.3283C34.1756 11.6693 35.7891 10.1025 35.7891 8.90438C35.7891 7.75233 34.1756 6.09337 32.7926 4.43442Z" fill="#0092B4"/>
</g>
<defs>
<clipPath id="clip0_844_105">
<rect width="117" height="38" fill="white"/>
</clipPath>
</defs>
</svg>
