<svg width="16" height="20" viewBox="0 0 16 20" fill="none" xmlns="http://www.w3.org/2000/svg">
<path d="M8.00034 0.400024C5.33634 0.400024 3.15234 2.56003 3.15234 5.24803C3.15234 7.91203 5.31234 10.096 8.00034 10.096C10.6643 10.096 12.8483 7.93603 12.8483 5.24803C12.8483 2.56003 10.6643 0.400024 8.00034 0.400024ZM8.00034 7.64803C6.65634 7.64803 5.57634 6.56803 5.57634 5.22403C5.57634 3.88003 6.65634 2.80003 8.00034 2.80003C9.34434 2.80003 10.4243 3.88003 10.4243 5.22403C10.4243 6.56803 9.34434 7.64803 8.00034 7.64803Z" fill="#0092B4"/>
<path d="M15.1284 10.84C14.6964 10.048 13.6884 9.75999 12.8964 10.216C9.60837 12.064 6.39237 12.064 3.10436 10.216C2.31236 9.75999 1.30436 10.048 0.872363 10.84C0.416363 11.632 0.704363 12.64 1.49636 13.072C2.62436 13.72 3.77637 14.176 4.92837 14.488L2.60036 16.816C1.95236 17.464 1.95236 18.496 2.60036 19.12C3.24836 19.768 4.28037 19.768 4.90437 19.12L8.00037 16.024L11.0964 19.12C11.7444 19.768 12.7764 19.768 13.4004 19.12C14.0484 18.472 14.0484 17.44 13.4004 16.816L11.0724 14.488C12.2244 14.176 13.3764 13.72 14.5044 13.072C15.2964 12.616 15.5844 11.632 15.1284 10.84Z" fill="#0092B4"/>
</svg>
