<svg width="16" height="16" viewBox="0 0 16 16" fill="none" xmlns="http://www.w3.org/2000/svg">
<path d="M14.4296 12.5289L14.3449 12.3643C14.1077 11.8212 11.1933 10.9983 10.9561 10.9819L10.7697 10.9983C10.4139 11.0641 10.0242 11.3768 9.2617 12.0187C9.1092 12.1504 8.90588 12.1833 8.71949 12.0845C7.7198 11.5414 6.49984 10.4552 5.88986 9.79688C5.22904 9.08918 4.43268 7.92066 4.05991 6.98255C3.99214 6.80151 4.05991 6.60402 4.19547 6.47235C5.05961 5.71528 5.43237 5.35321 5.46626 4.95821C5.4832 4.7278 4.97489 1.81473 4.44962 1.53494L4.29713 1.43619C3.95825 1.22224 3.44993 0.909534 2.89078 1.02474C2.75523 1.05766 2.61968 1.10703 2.50107 1.17286C2.12831 1.40328 1.19639 2.02868 0.772793 2.83512C0.518634 3.34532 0.400027 7.97003 3.95825 11.8706C7.48259 15.7382 11.8372 15.9028 12.481 15.7711H12.498L12.5488 15.7547C13.4299 15.442 14.1754 14.6355 14.4635 14.2899C14.9887 13.681 14.6329 12.9404 14.4296 12.5289Z" fill="#0092B4" stroke="#0092B4"/>
</svg>
