<svg width="12" height="12" viewBox="0 0 12 12" fill="none" xmlns="http://www.w3.org/2000/svg">
<path fill-rule="evenodd" clip-rule="evenodd" d="M6.25467 11.8713C6.77219 11.8713 7.19172 11.4518 7.19172 10.9342L7.19172 7.18815L10.9378 7.18815C11.4553 7.18815 11.8749 6.76862 11.8749 6.25111C11.8749 5.73359 11.4553 5.31406 10.9378 5.31406H7.19172L7.19172 1.56379C7.19172 1.04628 6.77219 0.626748 6.25467 0.626748C5.73716 0.626748 5.31763 1.04628 5.31763 1.56379L5.31763 5.31406L1.56737 5.31406C1.04986 5.31406 0.63033 5.73359 0.63033 6.25111C0.63033 6.76862 1.04986 7.18815 1.56738 7.18815L5.31763 7.18815L5.31763 10.9342C5.31763 11.4518 5.73716 11.8713 6.25467 11.8713Z" fill="#6DC067"/>
</svg>
