<svg width="19" height="19" viewBox="0 0 19 19" fill="none" xmlns="http://www.w3.org/2000/svg">
<path d="M9.5 0C4.24936 0 0 4.24888 0 9.5C0 14.7506 4.24888 19 9.5 19C14.7506 19 19 14.7511 19 9.5C19 4.24936 14.7511 0 9.5 0ZM9.2189 13.9464C8.68118 13.9464 8.26853 13.4962 8.26853 12.9835C8.26853 12.4583 8.69369 12.0207 9.2189 12.0207C9.74414 12.0207 10.1817 12.4583 10.1817 12.9835C10.1817 13.4962 9.75657 13.9464 9.2189 13.9464ZM10.6444 9.082C9.95667 9.61971 9.94412 9.99485 9.94412 10.6451C9.94412 10.8827 9.81907 11.1578 9.20635 11.1578C8.69361 11.1578 8.51861 10.9702 8.51861 10.32C8.51861 9.24458 8.99379 8.73187 9.35642 8.41926C9.76908 8.0691 10.4694 7.68149 10.4694 7.00625C10.4694 6.43098 9.96917 6.15589 9.34392 6.15589C8.06843 6.15589 8.34356 7.1188 7.66824 7.1188C7.33062 7.1188 6.91797 6.89366 6.91797 6.40601C6.91797 5.73076 7.69326 4.73033 9.38144 4.73033C10.982 4.73033 12.045 5.61821 12.045 6.79365C12.045 7.96909 10.982 8.81941 10.6444 9.082Z" fill="#0092B4"/>
</svg>
