<svg width="13" height="13" viewBox="0 0 13 13" fill="none" xmlns="http://www.w3.org/2000/svg">
<path d="M11.1742 0.414421L11.1822 1.99434C9.49915 0.24795 6.9462 -0.439433 4.5736 0.296977C1.85806 1.13983 0.00325846 3.65357 0.000184533 6.49605C-0.0142483 7.04985 0.822774 7.05313 0.812673 6.49927C0.815436 4.00925 2.43393 1.81239 4.81322 1.0739C6.98013 0.401333 9.31066 1.08511 10.7775 2.76095L8.84392 2.77124C8.30174 2.77415 8.30492 3.58758 8.84713 3.58461L11.5964 3.56956C11.8115 3.56838 12.0031 3.39015 12.0019 3.15851L11.9868 0.411302C11.9855 0.180632 11.8 -0.00604029 11.5731 0.00014962C11.3462 0.00633956 11.1731 0.191194 11.1742 0.414421ZM12.1874 6.50081C12.1848 8.99084 10.5662 11.1877 8.1869 11.9262C6.01999 12.5988 3.68946 11.915 2.22257 10.2391L4.1562 10.2289C4.69838 10.2259 4.6952 9.41251 4.15299 9.41548C3.23656 9.42055 1.59614 9.42945 1.4037 9.43053C1.18859 9.43171 0.99698 9.60994 0.998251 9.84158L1.0133 12.5888C1.01457 12.8195 1.20009 13.0061 1.43065 12.9998C1.65377 12.9937 1.82691 12.8088 1.82579 12.5856C1.82318 12.059 1.8178 11.0057 1.8178 11.0057C3.50086 12.7521 6.0538 13.4395 8.4264 12.7031C11.1419 11.8602 12.9967 9.34647 12.9998 6.50398C13.007 6.22709 12.8013 6.08819 12.5952 6.08738C12.3891 6.08657 12.1824 6.22386 12.1874 6.50081Z" fill="#F37928"/>
</svg>
