<svg width="20" height="16" viewBox="0 0 20 16" fill="none" xmlns="http://www.w3.org/2000/svg">
<path fill-rule="evenodd" clip-rule="evenodd" d="M19.1464 1.84665C18.3931 2.17064 17.6397 2.37297 16.8868 2.45425C17.7372 1.94401 18.3124 1.22319 18.6121 0.291819C17.8342 0.753375 17.0042 1.06915 16.1215 1.23931C15.3439 0.413218 14.3883 0 13.2542 0C12.1691 0 11.2438 0.382624 10.4782 1.14804C9.7129 1.91342 9.33024 2.83866 9.33024 3.92389C9.33024 4.21541 9.36258 4.51519 9.42743 4.82292C7.82374 4.74195 6.31938 4.33903 4.91407 3.61416C3.50884 2.88921 2.31625 1.92337 1.33629 0.716653C0.97992 1.32395 0.801671 1.98414 0.801671 2.69683C0.801671 3.36906 0.95958 3.99278 1.27561 4.56783C1.59143 5.14278 2.01673 5.60842 2.55131 5.96484C1.91946 5.9405 1.32825 5.77442 0.777587 5.46664V5.51524C0.777587 6.4629 1.07524 7.29491 1.67045 8.01191C2.26574 8.72881 3.01699 9.18007 3.92402 9.36645C3.58382 9.45543 3.23954 9.49998 2.89134 9.49998C2.66454 9.49998 2.41748 9.47976 2.15026 9.43955C2.40131 10.225 2.863 10.8707 3.53514 11.3771C4.20741 11.8833 4.96875 12.1443 5.81918 12.1609C4.39379 13.2783 2.76994 13.8371 0.947623 13.8371C0.599296 13.8371 0.283521 13.8212 0 13.7886C1.82236 14.9629 3.83092 15.55 6.02581 15.55C7.41886 15.55 8.7269 15.3295 9.94949 14.888C11.1727 14.4468 12.2174 13.8554 13.0841 13.1142C13.9505 12.3732 14.6978 11.5208 15.3254 10.557C15.953 9.59316 16.4206 8.58695 16.7286 7.53814C17.0363 6.48911 17.1902 5.43847 17.1902 4.38541C17.1902 4.15861 17.1861 3.98861 17.178 3.87517C17.9477 3.3166 18.6037 2.6402 19.1464 1.84665Z" fill="#0092B4"/>
</svg>
