<svg width="65" height="65" viewBox="0 0 65 65" fill="none" xmlns="http://www.w3.org/2000/svg">
<path d="M22.8278 50.96L13.1305 56.2495C12.5615 56.5598 12.0501 56.9412 11.5742 57.357C17.228 62.1241 24.5264 65 32.5005 65C40.4158 65 47.6676 62.167 53.3054 57.4649C52.7854 57.0258 52.2213 56.6309 51.5958 56.3194L41.2118 51.128C39.8701 50.4572 39.0226 49.086 39.0226 47.5861V43.512C39.3145 43.1796 39.6481 42.7528 40.005 42.2488C41.4203 40.2497 42.4909 38.0508 43.2329 35.7439C44.5648 35.333 45.5459 34.1029 45.5459 32.641V28.2922C45.5459 27.3356 45.1203 26.4808 44.4593 25.8823V19.5957C44.4593 19.5957 45.7507 9.81255 32.5018 9.81255C19.2528 9.81255 20.5442 19.5957 20.5442 19.5957V25.8823C19.882 26.4808 19.4576 27.3356 19.4576 28.2922V32.641C19.4576 33.7865 20.0598 34.7946 20.9612 35.3772C22.0478 40.1075 24.8931 43.512 24.8931 43.512V47.4856C24.8919 48.9327 24.0996 50.2658 22.8278 50.96Z" fill="#E0E4E7"/>
<path d="M33.0555 0.00489304C15.1094 -0.301711 0.311447 13.9983 0.00484284 31.9444C-0.169308 42.12 4.36597 51.2654 11.5871 57.3472C12.0593 56.9351 12.5658 56.5574 13.1287 56.2507L22.826 50.9612C24.0978 50.2671 24.89 48.934 24.89 47.4843V43.5107C24.89 43.5107 22.0435 40.1062 20.9581 35.3759C20.058 34.7934 19.4546 33.7865 19.4546 32.6398V28.2909C19.4546 27.3343 19.8801 26.4795 20.5412 25.881V19.5944C20.5412 19.5944 19.2498 9.81131 32.4987 9.81131C45.7477 9.81131 44.4563 19.5944 44.4563 19.5944V25.881C45.1185 26.4795 45.5429 27.3343 45.5429 28.2909V32.6398C45.5429 34.1017 44.5617 35.3318 43.2298 35.7426C42.4879 38.0495 41.4172 40.2485 40.0019 42.2475C39.645 42.7516 39.3114 43.1784 39.0196 43.5107V47.5849C39.0196 49.0848 39.867 50.4572 41.2087 51.1268L51.5928 56.3182C52.2158 56.6297 52.7787 57.0234 53.2975 57.4612C60.3003 51.621 64.8246 42.889 64.9926 33.0556C65.3016 15.1094 51.0029 0.311497 33.0555 0.00489304Z" fill="#0092B4"/>
</svg>
