<svg width="18" height="12" viewBox="0 0 18 12" fill="none" xmlns="http://www.w3.org/2000/svg">
<path d="M17.5132 6.07356C17.523 6.025 17.523 5.97497 17.5132 5.9264C17.504 5.87638 17.4844 5.82883 17.4557 5.78682C17.4497 5.77372 17.4428 5.76098 17.4352 5.74868C14.3713 2.06272 11.2079 0.303359 8.03919 0.517423C3.21903 0.844186 0.203928 5.59009 0.0779313 5.79187C0.0695001 5.80985 0.0625284 5.82849 0.0570834 5.84759C0.0446695 5.87232 0.0349388 5.89831 0.0280576 5.92511C0.0245016 5.975 0.0245016 6.02508 0.0280576 6.07497C0.0350354 6.10231 0.0449616 6.12881 0.0576616 6.15401C0.0629964 6.17254 0.0697791 6.19063 0.0779471 6.2081C0.203943 6.41007 3.21904 11.156 8.03921 11.4827C8.21169 11.4942 8.3843 11.5 8.55703 11.5C11.5541 11.5 14.5384 9.73641 17.4352 6.25128C17.4428 6.23898 17.4497 6.22625 17.4558 6.21314C17.4844 6.17113 17.504 6.12358 17.5132 6.07356H17.5132ZM8.09681 10.6983C4.22618 10.4385 1.51641 6.90167 0.885702 5.99984C1.51454 5.0982 4.21659 1.56467 8.0922 1.30188C10.9282 1.10905 13.7907 2.69374 16.6137 5.99998C13.7923 9.30462 10.9331 10.8945 8.09681 10.6983Z" fill="#0092B4"/>
<path d="M8.77174 2.90527C8.1594 2.90529 7.56082 3.08681 7.05168 3.42688C6.54255 3.76695 6.14574 4.25029 5.91142 4.81579C5.6771 5.38128 5.61581 6.00353 5.73529 6.60384C5.85477 7.20416 6.14966 7.75558 6.58266 8.18837C7.01567 8.62116 7.56734 8.91589 8.16792 9.03528C8.7685 9.15467 9.39101 9.09337 9.95674 8.85912C10.5225 8.62487 11.006 8.22819 11.3462 7.71926C11.6864 7.21032 11.8679 6.61198 11.8679 5.99991C11.8669 5.17943 11.5404 4.39283 10.96 3.81268C10.3795 3.23253 9.59258 2.9062 8.77174 2.90527ZM8.77174 8.30835C8.31501 8.30833 7.86853 8.17294 7.48878 7.91928C7.10902 7.66563 6.81304 7.30512 6.63827 6.88332C6.46349 6.46153 6.41777 5.99741 6.50688 5.54964C6.59598 5.10187 6.81593 4.69057 7.13889 4.36775C7.46185 4.04493 7.87333 3.82508 8.32129 3.73601C8.76925 3.64694 9.23357 3.69264 9.65554 3.86734C10.0775 4.04205 10.4382 4.3379 10.6919 4.71749C10.9457 5.09708 11.0812 5.54337 11.0812 5.99991C11.0805 6.61193 10.8369 7.19869 10.404 7.63145C9.97104 8.06422 9.38403 8.30765 8.77174 8.30835Z" fill="#0092B4"/>
</svg>
