<svg width="25" height="25" viewBox="0 0 25 25" fill="none" xmlns="http://www.w3.org/2000/svg">
<path fill-rule="evenodd" clip-rule="evenodd" d="M12.275 18.1498H13.475C13.475 18.1498 13.825 18.0998 14.025 17.8998C14.2 17.7248 14.2 17.3748 14.2 17.3748C14.2 17.3748 14.175 15.7748 14.925 15.5248C15.65 15.2998 16.6 17.0748 17.6 17.7498C18.35 18.2748 18.925 18.1498 18.925 18.1498L21.6 18.1248C21.6 18.1248 23 18.0498 22.325 16.9498C22.275 16.8498 21.95 16.1248 20.35 14.6498C18.675 13.0998 18.9 13.3498 20.925 10.6498C22.15 9.0248 22.65 8.0248 22.5 7.5748C22.35 7.1748 21.45 7.2748 21.45 7.2748L18.45 7.2998C18.45 7.2998 18.225 7.2748 18.05 7.3748C17.85 7.4998 17.75 7.7248 17.75 7.7248C17.75 7.7248 17.275 8.9998 16.65 10.0748C15.3 12.3498 14.775 12.4748 14.55 12.3248C14.05 11.9998 14.175 10.9998 14.175 10.2998C14.175 8.0998 14.5 7.1748 13.525 6.9498C13.2 6.8748 12.95 6.8248 12.125 6.7998C11.05 6.7998 10.15 6.7998 9.62501 7.0498C9.27501 7.2248 9.02501 7.5998 9.17501 7.5998C9.37501 7.6248 9.82501 7.7248 10.05 8.0498C10.35 8.4748 10.35 9.3998 10.35 9.3998C10.35 9.3998 10.525 11.9998 9.92501 12.3248C9.52501 12.5498 8.97501 12.0998 7.775 10.0248C7.175 8.9748 6.7 7.7998 6.7 7.7998C6.7 7.7998 6.6 7.5748 6.45 7.4748C6.325 7.3748 6.075 7.2998 5.8 7.2998L3.125 7.3248C3.125 7.3248 2.7 7.3248 2.55 7.5248C2.4 7.6998 2.55 8.0248 2.55 8.0248C2.55 8.0248 4.8 13.2498 7.325 15.8748C9.65 18.3248 12.275 18.1498 12.275 18.1498Z" fill="#0092B4"/>
</svg>
