<svg width="40" height="40" viewBox="0 0 40 40" fill="none" xmlns="http://www.w3.org/2000/svg">
<g clip-path="url(#clip0_682_6404)">
<path d="M27.7833 18.1167C27.8 17.9167 27.8167 17.7167 27.8167 17.5001C27.8167 17.2834 27.8 17.0834 27.7833 16.8834L29.1667 15.8667C30 15.2501 30.25 14.1001 29.7333 13.2001L28.5 11.0001C27.9833 10.0667 26.85 9.70008 25.9 10.1501L24.3667 10.8667C24.05 10.6501 23.75 10.4667 23.4167 10.3001L23.25 8.51675C23.15 7.46675 22.2833 6.66675 21.2333 6.66675H18.7667C17.7167 6.66675 16.85 7.46675 16.75 8.51675L16.5833 10.3001C16.25 10.4667 15.95 10.6501 15.6333 10.8667L14.1 10.1501C13.15 9.70008 12.0167 10.0834 11.5 11.0001L10.2667 13.2001C9.75 14.1001 10 15.2501 10.8333 15.8667L12.2167 16.8834C12.2 17.0834 12.1833 17.2834 12.1833 17.5001C12.1833 17.7167 12.2 17.9167 12.2167 18.1167L10.8333 19.1334C10 19.7501 9.75 20.9001 10.2667 21.8001L11.5 24.0001C12.0167 24.9167 13.15 25.3001 14.1 24.8501L15.6333 24.1334C15.95 24.3501 16.25 24.5334 16.5833 24.7001L16.75 26.4834C16.85 27.5334 17.7167 28.3334 18.7667 28.3334H21.2333C22.2833 28.3334 23.15 27.5334 23.25 26.4834L23.4167 24.7001C23.75 24.5334 24.05 24.3501 24.3667 24.1334L25.9 24.8501C26.85 25.3001 27.9833 24.9334 28.5 24.0001L29.7333 21.8001C30.25 20.9001 30 19.7501 29.1667 19.1334L27.7833 18.1167ZM24.1667 17.5001C24.1667 19.8001 22.3 21.6667 20 21.6667C17.7 21.6667 15.8333 19.8001 15.8333 17.5001C15.8333 15.2001 17.7 13.3334 20 13.3334C22.3 13.3334 24.1667 15.2001 24.1667 17.5001Z" fill="white"/>
<path d="M35 30H5C2.24333 30 0 32.2433 0 35C0 37.7567 2.24333 40 5 40H35C37.7567 40 40 37.7567 40 35C40 32.2433 37.7567 30 35 30ZM6.66667 36.6667C5.74833 36.6667 5 35.9183 5 35C5 34.0817 5.74833 33.3333 6.66667 33.3333C7.585 33.3333 8.33333 34.0817 8.33333 35C8.33333 35.9183 7.585 36.6667 6.66667 36.6667ZM15 36.6667C14.0817 36.6667 13.3333 35.9183 13.3333 35C13.3333 34.0817 14.0817 33.3333 15 33.3333C15.9183 33.3333 16.6667 34.0817 16.6667 35C16.6667 35.9183 15.9183 36.6667 15 36.6667ZM25 36.6667C24.0817 36.6667 23.3333 35.9183 23.3333 35C23.3333 34.0817 24.0817 33.3333 25 33.3333C25.9183 33.3333 26.6667 34.0817 26.6667 35C26.6667 35.9183 25.9183 36.6667 25 36.6667ZM33.3333 36.6667C32.415 36.6667 31.6667 35.9183 31.6667 35C31.6667 34.0817 32.415 33.3333 33.3333 33.3333C34.2517 33.3333 35 34.0817 35 35C35 35.9183 34.2517 36.6667 33.3333 36.6667Z" fill="white"/>
</g>
<defs>
<clipPath id="clip0_682_6404">
<rect width="40" height="40" fill="white"/>
</clipPath>
</defs>
</svg>
