<svg width="33" height="33" viewBox="0 0 33 33" fill="none" xmlns="http://www.w3.org/2000/svg">
<path d="M24.9476 19.8C27.5876 14.916 26.9276 8.58 22.8356 4.356C17.8196 -0.659998 9.63559 -0.659998 4.48759 4.356C-0.528414 9.372 -0.528414 17.556 4.48759 22.704C8.71159 26.928 15.0476 27.588 19.7996 24.948C20.9876 27.324 22.8356 29.964 23.7596 30.888C25.6076 32.736 28.7756 32.868 30.7556 30.888C32.6036 29.04 32.7356 25.74 30.7556 23.892C29.9636 22.836 27.3236 20.988 24.9476 19.8ZM22.0436 14.256C20.8556 15.708 17.4236 19.14 13.5956 19.14C9.63559 19.14 6.33559 15.708 5.14759 14.256C4.88359 13.86 4.88359 13.332 5.14759 12.936C6.33559 11.484 9.76759 8.052 13.5956 8.052C17.5556 8.052 20.8556 11.484 22.0436 12.936C22.4396 13.332 22.4396 13.86 22.0436 14.256Z" fill="white"/>
<path d="M13.5962 10.824H13.4642C13.3322 12.276 12.1442 13.332 10.8242 13.464V13.728C10.8242 15.312 12.1442 16.632 13.7282 16.632C15.3122 16.632 16.6322 15.312 16.6322 13.728C16.6322 12.144 15.1802 10.824 13.5962 10.824Z" fill="white"/>
</svg>
