<svg width="37" height="30" viewBox="0 0 37 30" fill="none" xmlns="http://www.w3.org/2000/svg">
<path fill-rule="evenodd" clip-rule="evenodd" d="M9.87128 0.000507001C13.1221 0.0412586 15.734 2.48913 15.729 5.49178C15.6788 8.5287 12.9987 10.9664 9.7108 10.9655C6.43088 10.9247 3.80895 8.43608 3.85309 5.40935C3.89722 2.38077 6.59137 -0.0402446 9.87128 0.000507001Z" fill="#F3F5F6"/>
<path fill-rule="evenodd" clip-rule="evenodd" d="M10.0188 12.9668C14.9437 12.9668 19.5987 15.5323 19.5987 22.1358C19.5987 23.3661 16.8007 24.089 13.3288 24.3503C7.63342 24.8802 -0.000976562 24.2327 -0.000976562 22.2003C-0.000976562 15.9499 4.16964 13.3172 8.79208 13.0535C9.19338 13.0013 9.60259 12.9717 10.0188 12.9668Z" fill="#F3F5F6"/>
<path fill-rule="evenodd" clip-rule="evenodd" d="M9.87128 0.000507001C13.1221 0.0412586 15.734 2.48913 15.729 5.49178C15.6788 8.5287 12.9987 10.9664 9.7108 10.9655C6.43088 10.9247 3.80895 8.43608 3.85309 5.40935C3.89722 2.38077 6.59137 -0.0402446 9.87128 0.000507001Z" fill="#F3F5F6"/>
<path d="M24.0732 24.9798L20.6433 26.857C19.1986 27.6577 17.3772 27.1414 16.5696 25.6968L24.0732 24.9798ZM24.0732 24.9798L27.6192 26.7528C27.6198 26.7531 27.6204 26.7534 27.6209 26.7537C28.2078 27.0481 28.8766 27.1415 29.5218 27.0188C29.5231 27.0185 29.5243 27.0183 29.5256 27.018L24.0732 24.9798ZM16.2155 23.8273L16.2197 23.8005L16.8192 19.9179L13.9499 17.2163C13.9489 17.2154 13.9479 17.2144 13.9469 17.2135C12.7409 16.0822 12.6783 14.1909 13.8015 12.981L13.8048 12.9774L13.8048 12.9774C14.2614 12.488 14.8691 12.1649 15.5322 12.0607L19.4149 11.4254L21.0895 7.89802L21.0938 7.88909L21.0981 7.8802C21.8203 6.39696 23.6085 5.76788 25.1029 6.49123C25.7009 6.78022 26.1937 7.26289 26.491 7.87303L28.1761 11.2433L32.1817 11.7509C33.8202 11.9505 34.9933 13.4375 34.7983 15.0813M16.2155 23.8273L34.7983 15.0813M16.2155 23.8273L16.2121 23.8543M16.2155 23.8273L16.2121 23.8543M34.7983 15.0813C34.7193 15.7528 34.4164 16.3715 33.9462 16.8442M34.7983 15.0813L33.9462 16.8442M33.9462 16.8442L31.1788 19.6478L31.9112 23.513L33.9462 16.8442ZM16.2121 23.8543C16.1316 24.49 16.2562 25.1363 16.5695 25.6966L16.2121 23.8543Z" fill="#F3F5F6" stroke="#0092B4" stroke-width="4"/>
</svg>
