<svg width="60" height="60" viewBox="0 0 60 60" fill="none" xmlns="http://www.w3.org/2000/svg">
<circle cx="30" cy="30" r="30" fill="#0092B4"/>
<mask id="path-2-outside-1_682_6345" maskUnits="userSpaceOnUse" x="16" y="15.9531" width="28" height="28" fill="black">
<rect fill="white" x="16" y="15.9531" width="28" height="28"/>
<path fill-rule="evenodd" clip-rule="evenodd" d="M36.9155 34.2048C38.5406 32.6911 39.5349 30.6606 39.5349 28.4287C39.5349 23.7478 35.1619 19.9531 29.7674 19.9531C24.373 19.9531 20 23.7478 20 28.4287C20 30.6804 21.0119 32.727 22.6627 34.2448C22.7808 34.3586 22.9165 34.4855 23.0616 34.6213C23.7292 35.2459 24.5975 36.0582 24.8823 36.6404C25.0553 36.9939 25.1947 37.3686 25.3193 37.7035C25.4618 38.0865 25.585 38.4175 25.7169 38.6053C25.9642 38.9572 26.2733 38.9865 26.9842 38.9865C27.1525 38.9865 27.5234 38.9882 28.0018 38.9903C29.5446 38.9971 32.2054 39.0089 32.7952 38.9865C33.5679 38.9572 33.6607 38.8692 33.8461 38.6053C33.9435 38.4667 34.0408 38.1976 34.1579 37.874C34.301 37.4783 34.4736 37.0012 34.7116 36.5817C34.9943 36.0836 35.7758 35.3221 36.3966 34.7173C36.5925 34.5265 36.7724 34.3512 36.9155 34.2048Z"/>
</mask>
<path fill-rule="evenodd" clip-rule="evenodd" d="M36.9155 34.2048C38.5406 32.6911 39.5349 30.6606 39.5349 28.4287C39.5349 23.7478 35.1619 19.9531 29.7674 19.9531C24.373 19.9531 20 23.7478 20 28.4287C20 30.6804 21.0119 32.727 22.6627 34.2448C22.7808 34.3586 22.9165 34.4855 23.0616 34.6213C23.7292 35.2459 24.5975 36.0582 24.8823 36.6404C25.0553 36.9939 25.1947 37.3686 25.3193 37.7035C25.4618 38.0865 25.585 38.4175 25.7169 38.6053C25.9642 38.9572 26.2733 38.9865 26.9842 38.9865C27.1525 38.9865 27.5234 38.9882 28.0018 38.9903C29.5446 38.9971 32.2054 39.0089 32.7952 38.9865C33.5679 38.9572 33.6607 38.8692 33.8461 38.6053C33.9435 38.4667 34.0408 38.1976 34.1579 37.874C34.301 37.4783 34.4736 37.0012 34.7116 36.5817C34.9943 36.0836 35.7758 35.3221 36.3966 34.7173C36.5925 34.5265 36.7724 34.3512 36.9155 34.2048Z" fill="#F3F5F6"/>
<path d="M36.9155 34.2048L34.1892 31.2777L34.1205 31.3417L34.0549 31.4089L36.9155 34.2048ZM22.6627 34.2448L25.4374 31.3637L25.4041 31.3316L25.37 31.3003L22.6627 34.2448ZM23.0616 34.6213L25.7944 31.7004L25.7944 31.7004L23.0616 34.6213ZM24.8823 36.6404L28.4752 34.8822L28.4752 34.8822L24.8823 36.6404ZM25.3193 37.7035L29.0683 36.3088L29.0683 36.3088L25.3193 37.7035ZM25.7169 38.6053L28.9898 36.3057L28.9898 36.3056L25.7169 38.6053ZM28.0018 38.9903L28.0195 34.9903H28.0195L28.0018 38.9903ZM32.7952 38.9865L32.9469 42.9837H32.9469L32.7952 38.9865ZM33.8461 38.6053L37.119 40.9049L37.119 40.9049L33.8461 38.6053ZM34.1579 37.874L30.3963 36.5135L30.3963 36.5135L34.1579 37.874ZM34.7116 36.5817L38.1904 38.556H38.1904L34.7116 36.5817ZM36.3966 34.7173L33.6053 31.8523L33.6053 31.8523L36.3966 34.7173ZM35.5349 28.4287C35.5349 29.4198 35.1028 30.4268 34.1892 31.2777L39.6417 37.1318C41.9784 34.9554 43.5349 31.9015 43.5349 28.4287H35.5349ZM29.7674 23.9531C33.5043 23.9531 35.5349 26.4708 35.5349 28.4287H43.5349C43.5349 21.0247 36.8194 15.9531 29.7674 15.9531V23.9531ZM24 28.4287C24 26.4708 26.0305 23.9531 29.7674 23.9531V15.9531C22.7155 15.9531 16 21.0247 16 28.4287H24ZM25.37 31.3003C24.4396 30.4448 24 29.428 24 28.4287H16C16 31.9328 17.5843 35.0093 19.9553 37.1894L25.37 31.3003ZM19.888 37.126C20.0311 37.2638 20.1895 37.4119 20.3288 37.5423L25.7944 31.7004C25.6434 31.5591 25.5305 31.4534 25.4374 31.3637L19.888 37.126ZM20.3288 37.5422C20.679 37.8698 20.9745 38.148 21.2151 38.4013C21.3313 38.5237 21.3974 38.6017 21.4269 38.6392C21.4706 38.6948 21.3911 38.6062 21.2894 38.3985L28.4752 34.8822C28.0412 33.9953 27.3717 33.2668 27.0159 32.8922C26.5843 32.4377 26.1118 31.9974 25.7944 31.7004L20.3288 37.5422ZM21.2894 38.3985C21.3614 38.5455 21.4352 38.735 21.5703 39.0982L29.0683 36.3088C28.9542 36.0021 28.7493 35.4424 28.4752 34.8822L21.2894 38.3985ZM21.5703 39.0982C21.6215 39.2356 21.9398 40.1873 22.444 40.9049L28.9898 36.3056C29.0469 36.3869 29.0896 36.456 29.1189 36.5061C29.1486 36.5566 29.1698 36.5968 29.183 36.6226C29.1963 36.6488 29.2045 36.6664 29.2075 36.6731C29.2107 36.6799 29.2105 36.6799 29.2069 36.6712C29.2032 36.6626 29.1974 36.6485 29.1889 36.6272C29.1805 36.6061 29.1704 36.5804 29.1583 36.5487C29.1462 36.517 29.1328 36.4817 29.1176 36.4411C29.1023 36.4001 29.0864 36.3574 29.0683 36.3088L21.5703 39.0982ZM22.444 40.9049C23.1036 41.8437 24.0393 42.5047 25.1685 42.7987C25.9479 43.0017 26.7295 42.9865 26.9842 42.9865V34.9865C26.8152 34.9865 26.7688 34.9841 26.769 34.9842C26.7762 34.9846 26.8181 34.9873 26.8838 34.9964C26.9502 35.0056 27.0546 35.0231 27.1849 35.057C27.4623 35.1293 27.8302 35.2692 28.2083 35.5331C28.5838 35.7951 28.8354 36.0859 28.9898 36.3057L22.444 40.9049ZM26.9842 42.9865C27.141 42.9865 27.4992 42.9881 27.9841 42.9903L28.0195 34.9903C27.5475 34.9883 27.1639 34.9865 26.9842 34.9865V42.9865ZM27.9841 42.9903C29.4482 42.9968 32.2456 43.0103 32.9469 42.9837L32.6435 34.9894C32.1652 35.0076 29.6409 34.9975 28.0195 34.9903L27.9841 42.9903ZM32.9469 42.9837C33.2935 42.9705 34.1789 42.9457 35.0592 42.5845C36.336 42.0607 36.9629 41.127 37.119 40.9049L30.5733 36.3056C30.5258 36.3732 30.6707 36.1519 30.9153 35.9126C31.2276 35.6071 31.6062 35.3541 32.0225 35.1833C32.378 35.0374 32.6511 34.9977 32.7157 34.9888C32.7841 34.9794 32.7823 34.9842 32.6435 34.9894L32.9469 42.9837ZM37.119 40.9049C37.4424 40.4446 37.6298 39.9874 37.697 39.823C37.7858 39.606 37.8693 39.373 37.9194 39.2345L30.3963 36.5135C30.3657 36.5981 30.344 36.6582 30.3242 36.7113C30.3047 36.764 30.2951 36.7881 30.2922 36.7951C30.2882 36.8049 30.3029 36.7676 30.3348 36.7032C30.3517 36.669 30.3781 36.6179 30.4142 36.555C30.4497 36.4931 30.5023 36.4067 30.5733 36.3057L37.119 40.9049ZM37.9194 39.2345C37.9944 39.027 38.0458 38.8864 38.0995 38.7557C38.1521 38.6275 38.1829 38.5693 38.1904 38.556L31.2328 34.6074C30.7998 35.3704 30.5205 36.1701 30.3963 36.5135L37.9194 39.2345ZM38.1904 38.556C38.1059 38.705 38.054 38.7581 38.11 38.6893C38.1525 38.637 38.2273 38.5511 38.3428 38.4281C38.5797 38.1759 38.8649 37.8971 39.188 37.5823L33.6053 31.8523C33.3075 32.1423 32.8916 32.5467 32.5118 32.9509C32.1963 33.2869 31.632 33.9039 31.2328 34.6074L38.1904 38.556ZM39.188 37.5823C39.3721 37.4029 39.5914 37.1897 39.7761 37.0006L34.0549 31.4089C33.9534 31.5128 33.8129 31.65 33.6053 31.8523L39.188 37.5823Z" fill="#0092B4" mask="url(#path-2-outside-1_682_6345)"/>
<rect width="8" height="4" rx="2" transform="matrix(1 0 0 -1 26 47)" fill="#F3F5F6"/>
<rect width="6" height="4" rx="2" transform="matrix(-4.37114e-08 -1 -1 4.37114e-08 32 17)" fill="#F3F5F6"/>
<rect x="19.8574" y="20.7139" width="6" height="4" rx="2" transform="rotate(-130 19.8574 20.7139)" fill="#F3F5F6"/>
<rect x="16.9062" y="28.2197" width="6" height="4" rx="2" transform="rotate(-170 16.9062 28.2197)" fill="#F3F5F6"/>
<rect width="6" height="4" rx="2" transform="matrix(0.984808 -0.173648 -0.173648 -0.984808 42.7539 28.2197)" fill="#F3F5F6"/>
<rect width="6" height="4" rx="2" transform="matrix(0.642788 -0.766044 -0.766044 -0.642788 39.8535 20.7139)" fill="#F3F5F6"/>
</svg>
