<svg width="60" height="61" viewBox="0 0 60 61" fill="none" xmlns="http://www.w3.org/2000/svg">
<circle cx="29.999" cy="30.1914" r="30" fill="#0092B4"/>
<path fill-rule="evenodd" clip-rule="evenodd" d="M23.8713 18.0005C27.1221 18.0413 29.734 20.4891 29.729 23.4918C29.6788 26.5287 26.9987 28.9664 23.7108 28.9655C20.4309 28.9247 17.809 26.4361 17.8531 23.4093C17.8972 20.3808 20.5914 17.9598 23.8713 18.0005Z" fill="#F3F5F6"/>
<path fill-rule="evenodd" clip-rule="evenodd" d="M24.0188 30.9668C28.9437 30.9668 33.5987 33.5323 33.5987 40.1358C33.5987 41.3661 30.8007 42.089 27.3288 42.3503C21.6334 42.8802 13.999 42.2327 13.999 40.2003C13.999 33.9499 18.1696 31.3172 22.7921 31.0535C23.1934 31.0013 23.6026 30.9717 24.0188 30.9668Z" fill="#F3F5F6"/>
<path fill-rule="evenodd" clip-rule="evenodd" d="M23.8713 18.0005C27.1221 18.0413 29.734 20.4891 29.729 23.4918C29.6788 26.5287 26.9987 28.9664 23.7108 28.9655C20.4309 28.9247 17.809 26.4361 17.8531 23.4093C17.8972 20.3808 20.5914 17.9598 23.8713 18.0005Z" fill="#F3F5F6"/>
<path d="M38.0732 42.9798L34.6433 44.857C33.1986 45.6577 31.3772 45.1414 30.5696 43.6968L38.0732 42.9798ZM38.0732 42.9798L41.6192 44.7528C41.6198 44.7531 41.6204 44.7534 41.6209 44.7537C42.2078 45.0481 42.8766 45.1415 43.5218 45.0188C43.5231 45.0185 43.5243 45.0183 43.5256 45.018L38.0732 42.9798ZM30.2155 41.8273L30.2197 41.8005L30.8192 37.9179L27.9499 35.2163C27.9489 35.2154 27.9479 35.2144 27.9469 35.2135C26.7409 34.0822 26.6783 32.1909 27.8015 30.981L27.8048 30.9774L27.8048 30.9774C28.2614 30.488 28.8691 30.1649 29.5322 30.0607L33.4149 29.4254L35.0895 25.898L35.0938 25.8891L35.0981 25.8802C35.8203 24.397 37.6085 23.7679 39.1029 24.4912C39.7009 24.7802 40.1937 25.2629 40.491 25.873L42.1761 29.2433L46.1817 29.7509C47.8202 29.9505 48.9933 31.4375 48.7983 33.0813M30.2155 41.8273L48.7983 33.0813M30.2155 41.8273L30.2121 41.8543M30.2155 41.8273L30.2121 41.8543M48.7983 33.0813C48.7193 33.7528 48.4164 34.3715 47.9462 34.8442M48.7983 33.0813L47.9462 34.8442M47.9462 34.8442L45.1788 37.6478L45.9112 41.513L47.9462 34.8442ZM30.2121 41.8543C30.1316 42.49 30.2562 43.1363 30.5695 43.6966L30.2121 41.8543Z" fill="#F3F5F6" stroke="#0092B4" stroke-width="4"/>
</svg>
